<?xml version="1.0" standalone="no"?>
<!DOCTYPE svg PUBLIC "-//W3C//DTD SVG 1.1//EN" "http://www.w3.org/Graphics/SVG/1.1/DTD/svg11.dtd" >
<svg xmlns="http://www.w3.org/2000/svg">
<metadata></metadata>
<defs>
<font id="tikal_sans_bookbook" horiz-adv-x="1286" >
<font-face units-per-em="2048" ascent="1638" descent="-410" />
<missing-glyph horiz-adv-x="530" />
<glyph horiz-adv-x="0" />
<glyph unicode="&#xd;" horiz-adv-x="2048" />
<glyph horiz-adv-x="1927" />
<glyph horiz-adv-x="1927" />
<glyph unicode="&#xa;" horiz-adv-x="0" />
<glyph horiz-adv-x="0" />
<glyph unicode=" "  horiz-adv-x="530" />
<glyph unicode="&#x09;" horiz-adv-x="530" />
<glyph unicode="&#xa0;" horiz-adv-x="530" />
<glyph unicode="!" horiz-adv-x="512" d="M156 74q0 43 29.5 72.5t72.5 29.5t71.5 -29.5t28.5 -72.5t-28.5 -72t-71.5 -29t-72.5 29t-29.5 72zM186 1389h138q-15 -278 -15 -697q0 -112 1.5 -190.5t3.5 -101.5l1 -23h-118q8 63 8 315q0 188 -4.5 362t-9.5 254z" />
<glyph unicode="&#x22;" horiz-adv-x="751" d="M156 1391h131q-13 -218 -13 -588h-106q0 165 -3 312t-6 211zM467 1391h131q-12 -218 -12 -588h-107q0 165 -3 312t-6 211z" />
<glyph unicode="#" horiz-adv-x="1247" d="M100 408l15 108q59 -2 209 -2l59 346l-231 -2l14 109q73 -2 233 -2q62 393 62 426h114q-34 -190 -77 -428h344q61 364 61 428h117q-35 -190 -78 -426l205 2l-14 -109q-59 2 -209 2l-60 -346l232 2l-15 -108q-73 2 -233 2q-55 -335 -55 -410h-115q31 183 72 412h-344 q-58 -357 -58 -412h-115q33 181 74 410zM422 512h344l59 350h-344z" />
<glyph unicode="$" horiz-adv-x="1099" d="M109 68v131q6 -5 17 -13.5t51 -30t85.5 -38t119.5 -30t153 -13.5q162 0 248.5 73t86.5 191q0 117 -78.5 179t-256.5 95q-216 43 -314 134t-98 253q0 179 119.5 292.5t332.5 119.5l21 272h84l-25 -274q32 -1 123 -9.5t180 -8.5v-115q-84 0 -184 11t-170 11 q-169 0 -260.5 -81t-91.5 -211q0 -119 72.5 -185t248.5 -102q238 -50 333 -129.5t95 -235.5q0 -157 -106.5 -264t-308.5 -121l-19 -311h-84l25 307q-76 1 -144.5 12t-113 26t-78 30t-48.5 25z" />
<glyph unicode="%" horiz-adv-x="1824" d="M90 1055q0 189 87.5 294t238.5 105q142 0 221.5 -107t79.5 -298t-79 -303.5t-224 -112.5q-152 0 -238 110.5t-86 311.5zM190 1049q0 -146 60 -228t162 -82q98 0 151 81.5t53 230.5q0 129 -51.5 213t-154.5 84q-104 0 -162 -75t-58 -224zM424 0q815 1315 815 1397h154 q-820 -1305 -820 -1397h-149zM1106 401q0 189 87 294.5t237 105.5q142 0 221.5 -107.5t79.5 -298.5q0 -192 -78 -303.5t-223 -111.5q-152 0 -238 110t-86 311zM1206 395q0 -147 58.5 -228t160.5 -81q100 0 153.5 81t53.5 230q0 129 -52 213t-155 84q-104 0 -161.5 -75 t-57.5 -224z" />
<glyph unicode="&#x26;" horiz-adv-x="1427" d="M133 352q0 72 23.5 130t64.5 96t89 62t104 36q-66 85 -96.5 162t-30.5 166q0 182 113.5 294.5t308.5 112.5q59 0 138.5 -10t158.5 -10v-113q-74 0 -156.5 10t-142.5 10q-131 0 -214 -79t-83 -211q0 -54 11 -99.5t44 -98.5t71.5 -98.5t117 -117t155 -135.5t209.5 -172 q125 175 125 440h121q0 -308 -154 -514q234 -186 266 -213h-215l-141 123q-174 -148 -410 -148q-225 0 -351 101.5t-126 275.5zM268 354q0 -122 89 -196t253 -74q183 0 314 113q-123 102 -185.5 155.5t-136.5 120.5t-121 119q-98 -21 -155.5 -82.5t-57.5 -155.5z" />
<glyph unicode="'" horiz-adv-x="440" d="M156 1391h131q-13 -218 -13 -588h-106q0 165 -3 312t-6 211z" />
<glyph unicode="(" horiz-adv-x="548" d="M117 608q0 113 12.5 223.5t33 196t45 163t49.5 132t45.5 95t33.5 60.5l12 19h135q-10 -13 -27 -38t-60.5 -110.5t-77 -181t-60.5 -247.5t-27 -312q0 -117 14 -229t36 -197.5t49 -162.5t54 -130.5t49 -92.5t36 -58l14 -19h-135q-9 14 -25 39.5t-55.5 113t-70 184 t-55.5 247t-25 305.5z" />
<glyph unicode=")" horiz-adv-x="548" d="M66 -281q10 13 27 38t60.5 110.5t76.5 181t60 247.5t27 312q0 117 -14 229t-36 197.5t-48.5 162.5t-53.5 130.5t-49 92.5t-36 58l-14 19h135q9 -14 25 -39.5t55.5 -113t70 -184t55.5 -247t25 -305.5q0 -113 -12.5 -223.5t-33 -196t-45 -163t-49.5 -132t-45.5 -95 t-32.5 -60.5l-13 -19h-135z" />
<glyph unicode="*" horiz-adv-x="985" d="M117 1128l47 105l293 -154l-19 383h113q-14 -336 -14 -383l280 144l49 -103l-299 -114l230 -267l-90 -69l-207 295l-199 -312l-92 66l219 285z" />
<glyph unicode="+" horiz-adv-x="1259" d="M109 608v113q195 -4 466 -4l-4 469h119q-6 -198 -6 -469l469 4v-113q-206 2 -469 4q0 -119 1.5 -237t2.5 -176l2 -58h-119q2 206 4 471z" />
<glyph unicode="," horiz-adv-x="477" d="M45 -121q19 0 45 -3t41 -3q107 0 107 102q-49 0 -78 29t-29 72t30.5 72.5t76.5 29.5q48 0 78 -32t30 -93q0 -264 -203 -264q-18 0 -48.5 2t-49.5 2v86z" />
<glyph unicode="-" horiz-adv-x="935" d="M154 606v119q133 -4 313 -4l313 4v-119q-137 6 -313 6q-80 0 -158 -1.5t-117 -2.5z" />
<glyph unicode="." horiz-adv-x="471" d="M135 76q0 43 29 72.5t72 29.5t71.5 -29.5t28.5 -72.5t-28.5 -72t-71.5 -29t-72 29t-29 72z" />
<glyph unicode="/" horiz-adv-x="899" d="M63 -240q633 1620 633 1706h144q-635 -1602 -635 -1706h-142z" />
<glyph unicode="0" horiz-adv-x="1374" d="M129 705q0 346 152.5 528t412.5 182q258 0 404.5 -184t146.5 -531q0 -349 -146.5 -543t-408.5 -194q-257 0 -409 195.5t-152 546.5zM256 692q0 -291 118.5 -453.5t319.5 -162.5q198 0 312 165t114 459q0 304 -111 450t-315 146q-101 0 -179.5 -34t-137.5 -105.5 t-90 -188.5t-31 -276z" />
<glyph unicode="1" horiz-adv-x="522" d="M195 0q6 353 6 696l-6 676l133 33q-9 -378 -9 -709q0 -153 1.5 -327t3.5 -271l2 -98h-131z" />
<glyph unicode="2" horiz-adv-x="1167" d="M113 0v94q179 143 300.5 244.5t210.5 185t138.5 139.5t78.5 110.5t37.5 95t8.5 94.5q0 161 -92.5 249t-264.5 88q-94 0 -213 -12.5t-188 -13.5v115q54 0 186.5 13t237.5 13q222 0 343.5 -113t121.5 -331q0 -40 -5 -75.5t-18.5 -72t-27.5 -67.5t-44 -70t-55.5 -70t-73 -77 t-86.5 -81.5t-106 -92.5t-120.5 -102t-141.5 -118q-27 -22 -41 -34q229 0 416 1.5t259 3.5l73 1v-117q-233 4 -502 4z" />
<glyph unicode="3" horiz-adv-x="1200" d="M137 76v135q6 -6 17 -15t52 -32.5t88 -41.5t125.5 -33t164.5 -15q187 0 276.5 78.5t89.5 203.5q0 281 -401 281q-54 0 -102 -3t-69 -6l-22 -3l373 415q119 129 149.5 170.5t30.5 67.5h-325q-138 0 -250 -1.5t-154 -2.5l-43 -2v117q135 -5 447 -5q147 0 263.5 1t160.5 3 l43 1v-72q0 -54 -31.5 -102t-147.5 -173l-282 -315q3 0 20 1t25 1q211 0 328.5 -96.5t117.5 -270.5q0 -82 -27.5 -151t-85 -125.5t-158.5 -88.5t-237 -32q-81 0 -155.5 11.5t-123.5 27.5t-86 32.5t-54 27.5z" />
<glyph unicode="4" horiz-adv-x="1245" d="M76 344v109q417 560 659 938h207q-6 -354 -6 -695v-247l225 4v-109q-84 2 -225 4l4 -348h-131q2 147 6 348h-194zM223 449h594v247q0 392 -4 592q-323 -438 -590 -839z" />
<glyph unicode="5" horiz-adv-x="1185" d="M123 92v135q2 -4 19.5 -18.5t57.5 -36.5t90.5 -42.5t128 -35t161.5 -14.5q172 0 269 76t97 211q0 140 -109.5 205t-340.5 65q-47 0 -127.5 -4.5t-137.5 -9.5l-57 -5l57 773q110 -7 404 -7l379 5v-115q-125 4 -379 4l-303 -2l-41 -539h264q252 0 386 -91t134 -267 q0 -187 -129 -298.5t-371 -111.5q-87 0 -165 12.5t-128 30.5t-88 36.5t-54 31.5z" />
<glyph unicode="6" horiz-adv-x="1290" d="M131 688q0 366 152.5 546.5t427.5 180.5q71 0 185.5 -12.5t211.5 -13.5v-115q-85 0 -198 14.5t-191 14.5q-226 0 -347.5 -145t-121.5 -447q0 -95 10 -150q1 28 14 60t45.5 69t79.5 66.5t123 49t168 19.5q244 0 366 -111t122 -306t-134 -317t-364 -122q-268 0 -408.5 180 t-140.5 539zM295 412q0 -137 104.5 -236.5t276.5 -99.5q183 0 283 92t100 238q0 150 -94 233.5t-281 83.5q-182 0 -285.5 -87t-103.5 -224z" />
<glyph unicode="7" horiz-adv-x="1058" d="M78 1270v119q179 -5 452 -5l471 5v-97q0 -61 -43.5 -149.5t-108.5 -179.5t-141.5 -208t-141.5 -231t-108.5 -253.5t-43.5 -270.5h-135q0 110 32.5 228.5t84.5 221.5t115 205t126 191.5t115 167.5t85 146.5t33 115.5q-11 0 -122.5 1t-217.5 1q-122 0 -235 -2t-165 -4z" />
<glyph unicode="8" horiz-adv-x="1298" d="M127 342q0 73 26.5 134.5t69 100.5t89.5 63t94 32q-39 8 -78.5 31t-77 62.5t-61 104t-23.5 142.5q0 82 33 154.5t93 128t153 88t206 32.5q115 0 208.5 -32.5t152 -88t90 -126.5t31.5 -150q0 -67 -16.5 -123.5t-42 -93.5t-58.5 -65.5t-63 -42.5t-60 -21q45 -7 92 -30 t90.5 -61t71 -99t27.5 -134q0 -165 -132.5 -269t-382.5 -104q-138 0 -242.5 28t-166.5 79t-92.5 116t-30.5 144zM248 344q0 -122 106.5 -194t302.5 -72q197 0 296.5 72t99.5 198q0 266 -396 266q-212 0 -310.5 -71.5t-98.5 -198.5zM289 1008q0 -142 89.5 -219.5t276.5 -77.5 q174 0 264.5 80.5t90.5 224.5q0 119 -94 207t-261 88q-170 0 -268 -89t-98 -214z" />
<glyph unicode="9" d="M113 934q0 205 133.5 343t359.5 138q549 0 549 -715q0 -377 -147 -552t-433 -175q-71 0 -185.5 13t-211.5 14v115q87 0 201.5 -14.5t185.5 -14.5q232 0 347.5 130.5t115.5 408.5q0 107 -12 157q-1 -28 -14.5 -63.5t-46 -78t-79 -77t-121 -57.5t-163.5 -23q-123 0 -217 35 t-150 97.5t-84 142.5t-28 176zM233 936q0 -154 94.5 -250t278.5 -96q90 0 164.5 31.5t121.5 83.5t73 116.5t26 132.5q0 152 -102.5 253.5t-280.5 101.5q-90 0 -163.5 -31.5t-118.5 -84.5t-69 -119t-24 -138z" />
<glyph unicode=":" horiz-adv-x="512" d="M154 188q0 43 29.5 72t72.5 29t71.5 -29t28.5 -72t-28.5 -71.5t-71.5 -28.5t-72.5 28.5t-29.5 71.5zM154 868q0 43 29.5 72t72.5 29t71.5 -29t28.5 -72t-28.5 -71.5t-71.5 -28.5t-72.5 28.5t-29.5 71.5z" />
<glyph unicode=";" horiz-adv-x="555" d="M92 -10q19 0 45 -2t41 -2q107 0 107 100q-49 0 -78 29.5t-29 72.5q0 42 31 71.5t76 29.5q48 0 78 -31.5t30 -91.5q0 -266 -203 -266q-18 0 -49 2t-49 2v86zM184 868q0 43 29 72t72 29t71.5 -29t28.5 -72t-28.5 -71.5t-71.5 -28.5t-72 28.5t-29 71.5z" />
<glyph unicode="&#x3c;" horiz-adv-x="1228" d="M106 633v135q19 0 258 100t468 200l229 99v-114l-854 -353q846 -352 854 -352v-115q-912 400 -955 400z" />
<glyph unicode="=" horiz-adv-x="1363" d="M162 430v109q222 -4 518 -4l520 4v-109q-230 4 -520 4zM162 823v109q222 -4 518 -4l520 4v-109q-230 4 -520 4z" />
<glyph unicode="&#x3e;" horiz-adv-x="1228" d="M168 233v115l856 352q-848 353 -856 353v114q911 -399 954 -399v-135q-19 0 -257.5 -100t-467.5 -200z" />
<glyph unicode="?" horiz-adv-x="985" d="M84 1276v115q61 0 188 13t199 13q205 0 313.5 -102t108.5 -273q0 -64 -21 -119t-55 -95.5t-74.5 -78t-82 -74t-76 -75t-56.5 -89t-24 -108.5h-117q0 63 21.5 118.5t55.5 96.5t74.5 79t81.5 74.5t74.5 74t54.5 86t21 102.5q0 128 -81.5 199.5t-235.5 71.5q-65 0 -181 -14 t-188 -15zM344 76q0 43 28.5 71.5t71.5 28.5t73 -29t30 -71q0 -43 -30 -72t-73 -29t-71.5 29t-28.5 72z" />
<glyph unicode="@" horiz-adv-x="1574" d="M123 514q0 154 46 287.5t130 232.5t211 156t281 57q160 0 290.5 -52.5t216 -144t131.5 -215t46 -266.5q0 -111 -22 -192t-61.5 -127.5t-88.5 -68t-109 -21.5q-52 0 -90.5 15t-58 39.5t-28.5 48.5t-9 48q-11 -18 -29 -37.5t-51 -45.5t-86 -43t-115 -17q-121 0 -181.5 53 t-60.5 135q0 83 58.5 129.5t181.5 46.5q160 0 260 -40v133q0 83 -37.5 117t-122.5 34q-51 0 -134.5 -8t-139.5 -8v102q55 0 141.5 6t149.5 6q135 0 196.5 -52.5t61.5 -166.5v-266q0 -123 104 -123q65 0 107.5 65.5t42.5 225.5q0 255 -154.5 414t-408.5 159 q-165 0 -289.5 -79.5t-190 -218t-65.5 -314.5q0 -275 154 -436.5t415 -161.5q79 0 145 15t92 30l27 15v-121q-8 -6 -26 -14.5t-87.5 -23t-156.5 -14.5q-165 0 -296 52.5t-216 146.5t-129.5 223.5t-44.5 284.5zM602 367q0 -50 35 -79.5t108 -29.5q45 0 86.5 16t66.5 35.5 t47 46.5t28.5 38t11.5 22q-11 5 -39 14t-86.5 19t-116.5 10q-74 0 -107.5 -25t-33.5 -67z" />
<glyph unicode="A" d="M76 0q6 16 16 45t41.5 117.5t62 175.5t72 207t77.5 224t72.5 214t62 191.5t41.5 140.5t16 76h213q0 -46 115.5 -394t230.5 -673l116 -324h-147q0 2 -12 39t-41 127.5t-54 167.5q-9 0 -111.5 1t-191.5 1q-93 0 -205 -1t-122 -1q-105 -313 -105 -334h-147zM360 436 q55 -2 295 -2q216 0 269 2q-265 820 -265 832h-30q0 -5 -67.5 -213t-134.5 -413z" />
<glyph unicode="B" horiz-adv-x="1269" d="M195 0q8 355 8 696q0 140 -2 314t-4 278l-2 103h333q127 0 226 -19t165.5 -52.5t109.5 -84t62 -110.5t19 -134q0 -228 -168 -336q26 -7 55.5 -25t61.5 -49.5t53 -83t21 -114.5q0 -383 -586 -383h-352zM322 604q0 -318 4 -502h237q432 0 432 281q0 102 -79.5 161.5 t-239.5 59.5h-354zM322 702h366q78 0 150 -8q9 5 21.5 14.5t34.5 34t39.5 55t30.5 79.5t13 104q0 148 -111 225.5t-360 77.5h-180q-4 -218 -4 -582z" />
<glyph unicode="C" horiz-adv-x="1284" d="M121 694q0 158 46.5 290t133 227t217.5 148.5t293 53.5q76 0 192.5 -14.5t178.5 -14.5v-114q-70 0 -179.5 14t-181.5 14q-271 0 -421 -160t-150 -452q0 -295 145 -449.5t410 -154.5q71 0 135.5 9.5t106.5 23t74 27t47 22.5l14 10v-121q-5 -3 -14.5 -8.5t-44 -19.5 t-76 -24.5t-111.5 -19t-148 -8.5q-167 0 -295 52t-209 147.5t-122 227t-41 294.5z" />
<glyph unicode="D" horiz-adv-x="1460" d="M195 0q8 355 8 696q0 140 -2 314t-4 278l-2 103h407q366 0 549.5 -178.5t183.5 -505.5q0 -335 -184 -521t-549 -186h-407zM317 694q0 -143 1.5 -283.5t2.5 -223t1 -85.5h260q320 0 471 151t151 462q0 273 -159.5 421t-469.5 148h-251q0 -4 -2 -89.5t-3.5 -225 t-1.5 -275.5z" />
<glyph unicode="E" horiz-adv-x="1132" d="M195 0q8 355 8 696q0 140 -2 314t-4 278l-2 103q1 0 17.5 -0.5t50 -1.5t80.5 -1.5t124 -1t166 -0.5l354 5v-117q-116 6 -354 6q-166 0 -307 -6q0 -38 -2 -243t-2 -329q43 -2 286 -2l355 5v-109q-117 4 -355 4q-235 0 -286 -2q0 -120 2 -287t2 -196q66 -4 307 -4 q106 0 194.5 1.5t124.5 3.5l35 1v-117q-116 4 -354 4z" />
<glyph unicode="F" horiz-adv-x="1091" d="M195 0q8 332 8 696q0 140 -2 314t-4 278l-2 103q1 0 19.5 -0.5t53.5 -1.5t83.5 -1.5t123 -1t158.5 -0.5l354 5v-117q-116 6 -354 6q-166 0 -307 -6q0 -38 -2 -255t-2 -341q23 0 141 -1t133 -1l379 4v-109q-141 4 -379 4q-223 0 -274 -2l4 -573h-131z" />
<glyph unicode="G" horiz-adv-x="1427" d="M121 694q0 158 46.5 290t133 227t217.5 148.5t293 53.5q75 0 188.5 -14.5t182.5 -14.5v-114q-74 0 -184 14t-177 14q-271 0 -421 -160t-150 -452q0 -291 144 -447.5t388 -156.5q109 0 193.5 27.5t134 74t74 102t24.5 117.5v154h-149l-266 -4v115q98 -4 266 -4l262 4 q0 -2 -0.5 -53t-1 -112t-0.5 -87q0 -70 -18.5 -133t-60 -120t-103 -99t-154.5 -66.5t-207 -24.5q-161 0 -286 52t-205.5 147.5t-122 227.5t-41.5 294z" />
<glyph unicode="H" horiz-adv-x="1454" d="M195 0q8 355 8 696q0 140 -2 314t-4 278l-2 103h135q-8 -354 -8 -660q11 0 67.5 -0.5t148.5 -1t189 -0.5q125 0 265 1t143 1l-9 660h134q-7 -381 -7 -695l4 -696h-131q7 309 9 625q-1 0 -141 2t-267 2q-96 0 -187 -1t-148 -2t-70 -1l6 -625h-133z" />
<glyph unicode="I" horiz-adv-x="522" d="M195 0q8 355 8 696q0 140 -2 314t-4 278l-2 103h133q-6 -381 -6 -695l4 -696h-131z" />
<glyph unicode="J" horiz-adv-x="917" d="M39 0v113q63 0 150.5 -10.5t152.5 -10.5q131 0 199.5 81.5t68.5 232.5v290q0 140 -2 313.5t-4 277.5l-2 104h133q-6 -381 -6 -695v-290q0 -207 -97 -315.5t-292 -108.5q-53 0 -145.5 8.5t-155.5 9.5z" />
<glyph unicode="K" horiz-adv-x="1251" d="M195 0q8 355 8 696q0 140 -2 314t-4 278l-2 103h133q-6 -354 -6 -660q244 216 467 427t223 233h188l-741 -684q22 -17 210 -194t365 -345l178 -168h-190q0 14 -112 121.5t-312 291t-276 255.5l6 -668h-133z" />
<glyph unicode="L" horiz-adv-x="1007" d="M195 0q8 355 8 696q0 140 -2 314t-4 278l-2 103h133q-6 -381 -6 -695l4 -581q28 -4 247 -4q106 0 194 1.5t123 3.5l36 1v-117q-139 4 -377 4q-136 0 -224.5 -1t-108.5 -2z" />
<glyph unicode="M" horiz-adv-x="1669" d="M195 0q8 355 8 696q0 140 -2 314t-4 278l-2 103h198q0 -24 111.5 -339t223.5 -618l112 -303q436 1215 436 1260h199q-7 -381 -7 -695q0 -151 2 -325t4 -273l1 -98h-132q7 355 7 696q0 112 -1 298.5t-1 230.5q-23 -65 -141 -388t-206 -570t-88 -267h-149q1 20 -90.5 272.5 t-206.5 561.5t-143 391q-5 -278 -5 -529q0 -151 1.5 -325t3.5 -273l2 -98h-131z" />
<glyph unicode="N" horiz-adv-x="1456" d="M195 0q8 355 8 696q0 140 -2 314t-4 278l-2 103h137l803 -1207q0 42 1 219t1 293l-7 695h132q-7 -381 -7 -695l5 -696h-134q-137 209 -332 502t-323 485t-147 223q-5 -278 -5 -514q0 -152 2.5 -326t4.5 -272l2 -98h-133z" />
<glyph unicode="O" horiz-adv-x="1529" d="M119 680q0 213 80.5 380.5t226.5 261t332 93.5q140 0 259 -48t207 -138t137.5 -228.5t49.5 -310.5q0 -153 -43.5 -284t-124 -226.5t-202.5 -150t-273 -54.5q-197 0 -345.5 91.5t-226 251t-77.5 362.5zM242 684q0 -279 150.5 -438.5t383.5 -159.5q158 0 276 81t177 214 t59 297q0 191 -69.5 333t-188 214.5t-268.5 72.5q-156 0 -275.5 -80t-182 -219t-62.5 -315z" />
<glyph unicode="P" horiz-adv-x="1187" d="M195 0q8 355 8 696q0 140 -2 314t-4 278l-2 103h292q619 0 619 -441q0 -202 -134 -315t-415 -113h-235l4 -522h-131zM322 625h233q213 0 318.5 85t105.5 240q0 154 -108.5 241t-342.5 87h-202q-4 -222 -4 -582v-71z" />
<glyph unicode="Q" horiz-adv-x="1529" d="M119 680q0 213 80.5 380.5t226.5 261t332 93.5q140 0 259 -48t207 -138t137.5 -228.5t49.5 -310.5q0 -256 -114.5 -434t-333.5 -252q8 -21 118 -258h-145q-6 27 -18.5 61t-22.5 57.5t-27.5 61t-23.5 51.5q-14 -2 -76 -2q-197 0 -345.5 91.5t-226 251t-77.5 362.5z M242 684q0 -283 153.5 -440.5t411.5 -157.5l115 6q8 2 21 7.5t51 26.5t72.5 48t77 75.5t72.5 106t51 142t21 180.5q0 191 -69.5 333t-188 214.5t-268.5 72.5q-156 0 -275.5 -80t-182 -219t-62.5 -315z" />
<glyph unicode="R" horiz-adv-x="1257" d="M195 0q8 355 8 696q0 140 -2 314t-4 278l-2 103h317q164 0 280 -29t184 -86t99 -134t31 -181q0 -283 -311 -420l405 -541h-176q0 17 -64.5 112t-168.5 237.5t-125 172.5h-344l4 -522h-131zM322 629h423q16 5 35 13t57.5 35t67 60.5t51.5 93t23 130.5q0 317 -451 317h-202 q-4 -222 -4 -582v-67z" />
<glyph unicode="S" horiz-adv-x="1120" d="M121 68v131q6 -5 17.5 -13.5t51.5 -30t86 -38t120 -30t153 -13.5q162 0 247 71.5t85 190.5q0 118 -75 177.5t-259 98.5q-216 45 -314 135.5t-98 251.5q0 183 126 297.5t349 114.5q72 0 170 -10t191 -10v-115q-84 0 -184.5 11t-170.5 11q-169 0 -260.5 -81t-91.5 -211 q0 -126 74 -188t248 -97q239 -47 333.5 -129.5t94.5 -239.5q0 -173 -122.5 -280t-352.5 -107q-79 0 -151.5 10.5t-119 25.5t-81.5 30.5t-51 26.5z" />
<glyph unicode="T" horiz-adv-x="1073" d="M39 1274v117q247 -5 504 -5l491 5v-117q-193 4 -426 6q-6 -312 -6 -584q0 -152 2 -326t4 -272l2 -98h-133q6 355 6 696q0 130 -2 339t-2 245z" />
<glyph unicode="U" horiz-adv-x="1445" d="M176 1391h139q-8 -426 -8 -773q0 -272 111.5 -403t318.5 -131q404 0 404 537l-6 770h133q-6 -381 -6 -783q0 -311 -134 -474t-389 -163q-555 0 -555 662q0 168 -2 357.5t-4 295.5z" />
<glyph unicode="V" horiz-adv-x="1323" d="M74 1391h155q0 -23 80 -262t189 -559t149 -447h35q45 122 231.5 677.5t186.5 590.5h149q-479 -1305 -479 -1391h-217q0 38 -119.5 386t-239.5 676z" />
<glyph unicode="W" horiz-adv-x="1867" d="M92 1391h139q0 -10 70 -306.5t144 -610t81 -351.5h33l291 1268h164l289 -1268h34q49 220 126 538t126 519t49 211h138q-353 -1305 -353 -1391h-213q0 29 -107.5 499.5t-172.5 745.5q-2 -10 -80 -343.5t-140.5 -607.5t-62.5 -294h-209q0 57 -152 653t-194 738z" />
<glyph unicode="X" horiz-adv-x="1181" d="M47 0l471 705q-177 277 -457 686h158q86 -147 180.5 -299.5t146.5 -231.5l52 -80q175 284 363 611h153l-450 -684q161 -243 471 -707h-162q-98 170 -194.5 324.5t-143.5 223.5l-47 70q-180 -261 -381 -618h-160z" />
<glyph unicode="Y" horiz-adv-x="1228" d="M66 1391h155q88 -178 187 -373t154 -300l56 -106q195 381 388 779h149q-121 -217 -234.5 -429.5t-175 -330.5t-67.5 -129q0 -12 -1 -69t-1 -103l6 -330h-131q8 168 8 330q0 43 -1 102t-1 70q-5 8 -70 130t-181.5 333t-239.5 426z" />
<glyph unicode="Z" horiz-adv-x="1142" d="M92 -2v117l817 1163q-28 0 -139.5 1t-194.5 1q-122 0 -238.5 -1.5t-172.5 -2.5l-55 -2v117q193 -5 466 -5l469 5v-117l-817 -1163h338l479 4v-117q-214 6 -479 6q-123 0 -241 -1.5t-175 -2.5z" />
<glyph unicode="[" horiz-adv-x="694" d="M176 -401q8 437 8 946q0 217 -2 454t-4 365l-2 129q91 -4 236 -4l198 4v-104q-81 6 -198 6q-92 0 -117 -2q-2 -954 -2 -1694q27 -2 119 -2q52 0 101.5 1.5t72.5 3.5l24 1v-104q-81 4 -198 4z" />
<glyph unicode="\" horiz-adv-x="899" d="M59 1466h144q0 -36 158 -462.5t317 -835.5l158 -408h-142q0 44 -159 470.5t-317 831.5z" />
<glyph unicode="]" horiz-adv-x="694" d="M84 -297q82 -6 201 -6q91 0 116 2v1694q-27 2 -116 2q-53 0 -103 -1.5t-74 -3.5l-24 -1v104q82 -4 201 -4l233 4q-6 -460 -6 -948l6 -946q-88 4 -233 4l-201 -4v104z" />
<glyph unicode="^" horiz-adv-x="995" d="M121 750q297 608 297 663h164q0 -24 72.5 -190t145.5 -319l72 -154h-129q0 58 -245 577q-19 -41 -50 -108.5t-79.5 -175.5t-81.5 -191t-33 -102h-133z" />
<glyph unicode="_" horiz-adv-x="1372" d="M154 -172q242 -4 530 -4l535 4v-80q-253 4 -535 4l-530 -4v80z" />
<glyph unicode="`" horiz-adv-x="561" d="M139 1448h148q0 -12 49.5 -83t99.5 -135l49 -65h-125q0 14 -55 84.5t-111 134.5z" />
<glyph unicode="a" horiz-adv-x="1093" d="M90 215q0 46 10 81t37 71t79 61.5t129.5 46.5t195.5 31t272 10q2 37 2 217q0 116 -66 177t-194 61q-61 0 -179 -13.5t-214 -13.5v115q80 0 210.5 12t194.5 12q184 0 277.5 -84.5t93.5 -250.5q0 -62 -4 -254.5t-4 -274.5q0 -54 3 -108.5t6 -82.5l3 -28h-104 q-17 68 -23 174q-157 -199 -401 -199q-160 0 -242 70.5t-82 169.5zM217 229q0 -69 55.5 -111t165.5 -42q67 0 129.5 19.5t102.5 45t75 57.5t48 49t20 27v162q-154 -1 -266 -13.5t-174.5 -31t-98.5 -47.5t-46.5 -55t-10.5 -60z" />
<glyph unicode="b" horiz-adv-x="1206" d="M156 1556h135q-6 -281 -8 -688q21 39 49.5 72.5t72 68t107 54.5t139.5 20q195 0 320 -146.5t125 -391.5q0 -165 -63 -294t-183.5 -202.5t-280.5 -73.5q-81 0 -152.5 16.5t-116 39.5t-77.5 46t-47 39l-14 17v612q0 205 -1.5 407.5t-2.5 303.5zM283 178q7 -8 23.5 -21 t50 -32t87 -32t115.5 -13q198 0 305 121.5t107 339.5q0 201 -93.5 318.5t-256.5 117.5q-67 0 -126.5 -23t-95 -52.5t-64 -66.5t-38.5 -56.5t-14 -30.5v-570z" />
<glyph unicode="c" horiz-adv-x="1026" d="M111 506q0 268 130.5 422.5t374.5 154.5q66 0 150 -12t152 -12v-115q-69 0 -150.5 14.5t-153.5 14.5q-175 0 -275.5 -120t-100.5 -329q0 -215 105 -328.5t319 -113.5q72 0 136 15t92 29l28 15v-110q-11 -6 -31.5 -15.5t-92 -25t-151.5 -15.5q-264 0 -398 141t-134 390z " />
<glyph unicode="d" horiz-adv-x="1216" d="M111 512q0 257 144 414t374 157q54 0 104.5 -12t83.5 -29.5t58.5 -35t36.5 -29.5l12 -12q0 117 -2 265t-4 237l-3 89h136q-7 -414 -7 -849q0 -179 5 -356t11 -264l5 -87h-104q-17 77 -25 186q-21 -37 -52 -71t-76.5 -67t-109.5 -53t-137 -20q-199 0 -324.5 145 t-125.5 392zM236 516q0 -203 95 -319.5t265 -116.5q62 0 117.5 20.5t90 47.5t63.5 61.5t40 53.5t17 34v557q-4 5 -12 13.5t-35 30t-57.5 38t-79.5 30t-101 13.5q-186 0 -294.5 -121.5t-108.5 -341.5z" />
<glyph unicode="e" horiz-adv-x="1126" d="M111 537q0 126 37.5 230.5t102.5 173t151 105.5t184 37q205 0 311.5 -121.5t106.5 -326.5q0 -29 -2 -53.5t-4 -34.5l-3 -10h-757q0 -217 102 -336t307 -119q32 0 64 4.5t58 10.5t53 16t45.5 18.5t38.5 19.5t30 17.5t23 15t14 9.5v-115q-1 -1 -16 -10.5t-28.5 -17 t-37 -19.5t-50 -21t-59 -17.5t-72.5 -13t-83 -4.5q-169 0 -286.5 71.5t-173.5 196t-56 294.5zM244 623h637v34q0 144 -75.5 231t-221.5 87q-132 0 -228.5 -98t-111.5 -254z" />
<glyph unicode="f" horiz-adv-x="757" d="M59 946v113q86 -4 197 -4v196q0 146 79 225.5t212 79.5q39 0 109 -7t122 -7v-115q-57 0 -117 9.5t-92 9.5q-194 0 -194 -195v-196l340 4v-113q-164 2 -340 4v-205q0 -179 2 -365.5t4 -283.5l2 -96h-135q8 343 8 745v203z" />
<glyph unicode="g" horiz-adv-x="1136" d="M104 -78q0 98 76 161.5t246 96.5q-72 51 -72 137l2 76q-128 37 -190 122.5t-62 203.5q0 170 118 267t335 97q255 0 352 -143v53l-6 219h115q-2 -112 -2 -225v-235q0 -178 -115.5 -281.5t-335.5 -103.5q-44 0 -110 8v-43q0 -64 50 -95t202 -55q181 -26 253 -84t72 -168 q0 -42 -15 -80t-50 -74t-88.5 -61.5t-136 -41t-185.5 -15.5q-234 0 -343.5 73.5t-109.5 190.5zM223 -74q0 -80 81.5 -129t258.5 -49q184 0 263 51.5t79 128.5q0 64 -48 99t-185 59q-102 17 -154 33q-152 -20 -223.5 -67.5t-71.5 -125.5zM225 715q0 -120 85.5 -188t250.5 -68 q157 0 245.5 68.5t88.5 187.5q0 124 -89.5 193t-248.5 69q-332 0 -332 -262z" />
<glyph unicode="h" horiz-adv-x="1189" d="M164 0q8 345 8 745q0 187 -2 389.5t-4 311.5l-2 110h135q-6 -322 -6 -708q22 42 50.5 79t71.5 74.5t104 59.5t132 22q175 0 276 -94t101 -291l6 -698h-133q6 300 6 680q0 140 -70 217.5t-200 77.5q-67 0 -124.5 -24t-93.5 -56t-65 -74.5t-41 -69t-20 -49.5l6 -702h-135z " />
<glyph unicode="i" horiz-adv-x="460" d="M131 1444q0 42 29 71t71 29q43 0 73 -29t30 -71q0 -43 -30 -73t-73 -30q-42 0 -71 30t-29 73zM164 0q8 271 8 530q0 108 -2 240t-4 210l-2 79h133q-8 -287 -8 -529q0 -115 2 -247.5t4 -207.5l2 -75h-133z" />
<glyph unicode="j" horiz-adv-x="458" d="M-49 -248h92q64 0 94.5 40.5t30.5 105.5q4 476 4 632q0 108 -2 240t-4 210l-2 79h133q-8 -287 -8 -529v-614q0 -258 -228 -258q-36 0 -63.5 2t-37.5 4l-9 2v86zM131 1444q0 43 28.5 71.5t71.5 28.5t73 -29t30 -71q0 -43 -30 -73t-73 -30q-42 0 -71 30t-29 73z" />
<glyph unicode="k" horiz-adv-x="1116" d="M164 0q8 379 8 745l-8 811h135q-6 -474 -6 -811v-237q219 233 323 352q179 199 422 199v-115q-187 0 -336 -149l-145 -146l496 -649h-170q-40 68 -101 150l-309 419l-180 -196l6 -373h-135z" />
<glyph unicode="l" horiz-adv-x="530" d="M164 1556h135q-8 -454 -8 -811v-540q0 -55 28.5 -86t79.5 -31q29 0 54 7t35 13l10 7v-103q-37 -24 -119 -24q-95 0 -152 55.5t-57 155.5v38.5t0.5 92t1 123t0.5 146v146.5q0 154 -2 356.5t-4 328.5z" />
<glyph unicode="m" horiz-adv-x="1822" d="M150 1059h120q13 -80 19 -234q128 258 354 258q281 0 326 -262q22 47 50.5 88.5t71.5 83t103.5 66t130.5 24.5q165 0 250.5 -92t85.5 -291v-170q0 -115 2 -247.5t4 -207.5l2 -75h-133q8 271 8 530v154q0 144 -60 217.5t-173 73.5q-57 0 -107.5 -21.5t-85 -51.5t-64.5 -71 t-45.5 -72t-27.5 -63v-166l6 -530h-131q6 271 6 530v154q0 144 -60 217.5t-173 73.5q-60 0 -113.5 -24t-88 -56t-65 -77t-44 -74.5t-25.5 -61.5v-121l6 -561h-131q6 271 6 575q0 159 -6 280t-12 163z" />
<glyph unicode="n" horiz-adv-x="1189" d="M150 1059h120q19 -128 19 -234q124 258 373 258q368 0 368 -385v-168l6 -530h-131q6 273 6 530v146q0 299 -268 299q-66 0 -124 -25t-94 -58t-67 -79t-44 -73t-23 -54v-156q0 -115 2 -247.5t4 -207.5l2 -75h-133q8 271 8 530v107q0 116 -6 221.5t-12 153.5z" />
<glyph unicode="o" horiz-adv-x="1212" d="M111 524q0 255 129 407t366 152q240 0 368 -149t128 -397q0 -118 -31.5 -219t-91.5 -178t-156 -121t-217 -44q-233 0 -364 152t-131 397zM236 518q0 -194 97.5 -315t272.5 -121q170 0 268.5 122t98.5 318q0 224 -97.5 337.5t-269.5 113.5q-171 0 -270.5 -114.5 t-99.5 -340.5z" />
<glyph unicode="p" horiz-adv-x="1216" d="M147 1059h117q15 -74 21 -203q19 38 46 72.5t71.5 72t112 60t149.5 22.5q195 0 319.5 -146.5t124.5 -391.5q0 -123 -37 -228t-104 -180.5t-166.5 -118.5t-218.5 -43q-80 0 -148.5 21.5t-96 40.5t-42.5 35l6 -414h-135q8 366 8 842q0 194 -7 333.5t-13 182.5zM295 178 q4 -5 14 -15t33.5 -25t53.5 -27.5t76 -21.5t97 -9q194 0 304 128.5t110 332.5q0 201 -93.5 318.5t-256.5 117.5q-67 0 -126.5 -22.5t-95.5 -53t-64 -66t-39 -57t-13 -30.5v-570z" />
<glyph unicode="q" horiz-adv-x="1204" d="M111 512q0 257 143 414t375 157q84 0 157.5 -17.5t118.5 -42.5t77.5 -50t45.5 -43l14 -17v-600q0 -150 2 -314t4 -253l3 -88h-138q9 189 9 514q-30 -50 -71.5 -90.5t-118.5 -73.5t-171 -33q-199 0 -324.5 145t-125.5 392zM236 516q0 -203 95 -319.5t265 -116.5 q61 0 115.5 20t89.5 46.5t63 59.5t40.5 54t17.5 35v569q-2 5 -11 15.5t-32.5 28.5t-54 33t-80 26.5t-105.5 11.5q-189 0 -296 -121t-107 -342z" />
<glyph unicode="r" horiz-adv-x="778" d="M150 1059h120q15 -100 21 -252q99 252 334 252h112v-111h-106q-107 0 -198.5 -70t-139.5 -221v-127l6 -530h-131q6 271 6 575q0 159 -6 280t-12 163z" />
<glyph unicode="s" horiz-adv-x="997" d="M117 74v125q5 -5 14.5 -13.5t44.5 -29.5t75.5 -37t107 -29.5t139.5 -13.5q146 0 210 52.5t64 137.5q0 84 -62.5 122.5t-230.5 72.5q-185 37 -270.5 109.5t-85.5 191.5q0 150 103.5 235.5t287.5 85.5q63 0 166 -12t176 -12v-115q-66 0 -168.5 14.5t-179.5 14.5 q-128 0 -194 -55t-66 -148q0 -90 62.5 -133t232.5 -76q194 -39 274 -97.5t80 -187.5q0 -135 -98 -219t-297 -84q-77 0 -145 10.5t-110 25t-73 29.5t-44 26z" />
<glyph unicode="t" horiz-adv-x="774" d="M63 946v115q142 -4 199 -4l17 264h102q-4 -145 -4 -264l342 4v-115q-158 4 -342 4v-178q0 -34 1 -219t1 -262q0 -193 194 -193q41 0 77.5 8t52.5 16l16 7v-106q-49 -31 -168 -31q-148 0 -222.5 77.5t-74.5 213.5q0 43 2 227t2 262v176z" />
<glyph unicode="u" horiz-adv-x="1179" d="M154 1059h141q-6 -274 -6 -531v-147q0 -153 59 -225t184 -72q62 0 118 25.5t92.5 60t67.5 80t45 74.5t24 55q2 33 2 149q0 115 -1.5 247.5t-3.5 208.5l-2 75h140q-6 -317 -6 -574q0 -169 5 -290.5t10 -158.5l5 -36h-102q-27 102 -27 274q-17 -41 -39 -79.5t-57.5 -79.5 t-77 -71t-98 -49.5t-119.5 -19.5q-171 0 -258.5 92t-87.5 291v170q0 115 -2 247.5t-4 208.5z" />
<glyph unicode="v" horiz-adv-x="1083" d="M78 1059h145q0 -10 150 -471l164 -482h20q86 277 152 478q40 128 74.5 245t49.5 172t15 58h145q-352 -998 -352 -1059h-186q0 27 -94.5 292t-188.5 516z" />
<glyph unicode="w" horiz-adv-x="1597" d="M92 1059h135q0 -24 113 -461q22 -85 49 -202.5t45.5 -200.5t20.5 -89h22l238 936h166l243 -936h21l129 515q100 417 100 438h135q-280 -998 -280 -1059h-197q0 24 -58.5 261t-117.5 462l-59 225q-230 -893 -230 -948h-202q0 40 -116.5 481t-156.5 578z" />
<glyph unicode="x" horiz-adv-x="1036" d="M47 0q63 86 125 172.5t108 152.5l80.5 115.5t57.5 83.5t24 35q-2 2 -25.5 36.5t-60 86t-80.5 113t-98.5 133t-103.5 131.5h172q39 -69 106.5 -171.5t109.5 -162t62 -86.5q2 3 37.5 55t73 108t86.5 130t82 127h164q-181 -211 -379 -494q247 -362 399 -565h-170 q-42 77 -96.5 166t-93 148t-75.5 113l-36 54q-2 -2 -26.5 -37.5t-55.5 -81t-69.5 -104t-80.5 -127.5t-77 -131h-160z" />
<glyph unicode="y" horiz-adv-x="1085" d="M74 1059h149q0 -2 18.5 -56.5t61 -181t82.5 -246.5q60 -183 166 -471l151 457q42 134 78.5 256.5t52 180.5t15.5 61h145q-276 -789 -372 -1071q-67 -200 -129 -265t-183 -65q-22 0 -43 1.5t-31 2.5l-10 2v88h72q73 0 114 40.5t87 154.5q-28 84 -134 362t-198 514z" />
<glyph unicode="z" horiz-adv-x="1015" d="M90 0v109l680 845q-39 2 -260 2l-399 -4v107q245 -4 399 -4l397 4v-107l-682 -848q87 7 140 7q82 0 183.5 -7.5t178.5 -7.5q54 0 102 6t69 12l22 7v-103q-56 -24 -191 -24q-69 0 -185.5 7t-195.5 7q-53 0 -117.5 -2t-102.5 -4z" />
<glyph unicode="{" horiz-adv-x="712" d="M76 555v72q81 2 126.5 46t45.5 126v446q0 117 58.5 184.5t170.5 67.5q45 0 81 -9.5t50 -18.5l13 -9v-98q-54 37 -136 37q-64 0 -98.5 -38.5t-34.5 -109.5v-438q0 -163 -139 -223q67 -28 103 -84.5t36 -136.5v-439q0 -71 34.5 -109t98.5 -38q36 0 70 9.5t50 18.5l16 9v-99 q-5 -4 -14.5 -10t-47 -16t-82.5 -10q-112 0 -170.5 67.5t-58.5 184.5v446q0 82 -45.5 125.5t-126.5 46.5z" />
<glyph unicode="|" horiz-adv-x="466" d="M176 -340q8 507 8 993q0 200 -2 447.5t-4 394.5l-2 147h117q-6 -539 -6 -989l4 -993h-115z" />
<glyph unicode="}" horiz-adv-x="712" d="M92 -180q53 -37 135 -37q64 0 98.5 38t34.5 109v439q0 79 36 136t104 85q-140 61 -140 223v438q0 71 -34.5 109.5t-98.5 38.5q-36 0 -70 -9.5t-49 -18.5l-16 -9v98q5 4 14.5 10t47 16.5t82.5 10.5q112 0 170.5 -67.5t58.5 -184.5v-446q0 -82 45.5 -125.5t126.5 -46.5v-72 q-81 -2 -126.5 -46t-45.5 -126v-446q0 -117 -58.5 -184.5t-170.5 -67.5q-45 0 -81 9t-49 18l-14 9v99z" />
<glyph unicode="~" horiz-adv-x="1089" d="M154 416q30 215 208 215q64 0 128 -26.5t120.5 -52.5t104.5 -26t73 30t25 83h121q-32 -207 -203 -207q-68 0 -132.5 24t-120 48t-101.5 24q-53 0 -79 -26t-26 -86h-118z" />
<glyph unicode="&#xa1;" horiz-adv-x="481" d="M141 973q0 43 29 71.5t72 28.5t72.5 -28.5t29.5 -71.5t-29.5 -73t-72.5 -30t-72 30t-29 73zM172 -342q16 275 16 696q0 112 -1.5 191t-2.5 102l-2 23h119q-8 -64 -8 -316q0 -187 4 -361t8 -255l4 -80h-137z" />
<glyph unicode="&#xa2;" horiz-adv-x="1028" d="M86 506q0 261 125.5 415t357.5 160l21 310h84l-25 -310q28 -2 104.5 -13t141.5 -11v-115q-70 0 -151.5 15.5t-153.5 15.5q-175 0 -276 -120t-101 -329q0 -214 104.5 -328t313.5 -114q74 0 140 15t95 29l29 15v-110q-11 -6 -32 -15.5t-93 -25t-152 -15.5l-20 -317h-84 l25 322q-224 20 -338.5 158t-114.5 368z" />
<glyph unicode="&#xa3;" horiz-adv-x="1236" d="M104 537v94q74 -2 183 -4q-4 22 -15.5 71t-18 79.5t-12 80.5t-5.5 100q0 216 127 334.5t346 118.5q66 0 162.5 -10t191.5 -10v-115q-84 0 -184 12t-168 12q-174 0 -263.5 -91t-89.5 -255q0 -70 8 -124t24.5 -115t21.5 -88l612 4v-94q-220 4 -600 4q6 -43 6 -82 q0 -81 -16.5 -148.5t-41 -107t-43.5 -61t-34 -29.5q63 14 162 14q78 0 213.5 -22.5t208.5 -22.5q70 0 126 12t77 24l20 13l2 -115q-7 -5 -22 -11.5t-70.5 -18t-120.5 -11.5q-77 0 -216.5 19.5t-228.5 19.5q-70 0 -146 -6t-116 -12l-41 -6v112q7 4 18 12t40 38.5t51.5 67 t40.5 97.5t18 129q0 31 -8 93z" />
<glyph unicode="&#xa4;" horiz-adv-x="1349" d="M158 281q83 79 118 112q-96 132 -96 320q0 182 94 313l-116 115l92 90q77 -80 112 -115q133 111 316 111q180 0 309 -107l111 113l92 -92q-82 -78 -113 -111q99 -136 99 -317q0 -185 -103 -322l119 -110l-92 -93q-80 78 -115 115q-125 -104 -307 -104q-189 0 -316 106 l-112 -117zM305 713q0 -188 104.5 -296t268.5 -108q162 0 266.5 109t104.5 295t-104.5 295.5t-266.5 109.5q-164 0 -268.5 -108.5t-104.5 -296.5z" />
<glyph unicode="&#xa5;" horiz-adv-x="1290" d="M86 1391h168q91 -187 190.5 -378.5t153.5 -289.5l53 -98q190 357 387 766h162q-125 -223 -463 -836l371 2v-92q-178 2 -399 2v-154l399 4v-94q-178 2 -399 4l4 -227h-129q4 102 6 227l-402 -4v94q181 -4 402 -4v154l-402 -2v92q166 -2 371 -2q-95 163 -473 836z" />
<glyph unicode="&#xa6;" horiz-adv-x="489" d="M184 -90q9 157 9 309q0 63 -2.5 140t-4.5 123l-2 46h123q-6 -168 -6 -309l4 -309h-121zM184 854q9 157 9 309q0 63 -2.5 140.5t-4.5 123.5l-2 46h123q-6 -169 -6 -310l4 -309h-121z" />
<glyph unicode="&#xa7;" horiz-adv-x="1116" d="M145 1133q0 141 112 223t312 82q63 0 171.5 -12.5t191.5 -12.5v-115q-67 0 -181.5 15.5t-189.5 15.5q-140 0 -214.5 -50t-74.5 -140q0 -85 72 -134.5t254 -89.5q222 -47 303.5 -100.5t81.5 -152.5q0 -83 -51 -138t-121 -86q87 -36 128.5 -89t41.5 -136 q0 -61 -23.5 -112.5t-72 -94t-132 -66.5t-194.5 -24q-77 0 -147 9.5t-115.5 22.5t-79.5 26t-49 22l-16 10v123q5 -5 15 -12t47 -26.5t81 -34t117.5 -26.5t154.5 -12q149 0 218 51t69 130t-69 122.5t-263 84.5q-197 43 -283.5 115.5t-86.5 178.5q0 72 35.5 126t88.5 85 q-131 80 -131 222zM281 709q0 -33 11.5 -60t37 -47.5t51 -35t69 -28t73 -21t82 -19.5t79.5 -19q23 6 47 16.5t55 30t50.5 52t19.5 71.5q0 38 -25 64.5t-76 44.5t-104 31l-132.5 32.5t-139.5 40.5q-36 -21 -67 -60.5t-31 -92.5z" />
<glyph unicode="&#xa8;" horiz-adv-x="444" d="M-68 1395q0 38 24.5 63t61.5 25q38 0 63 -25t25 -63q0 -37 -25 -61.5t-63 -24.5q-37 0 -61.5 24.5t-24.5 61.5zM340 1395q0 38 24.5 63t61.5 25t62.5 -25t25.5 -63q0 -37 -25.5 -61.5t-62.5 -24.5t-61.5 24.5t-24.5 61.5z" />
<glyph unicode="&#xa9;" horiz-adv-x="1669" d="M123 696q0 168 56 306t152.5 228.5t225.5 139.5t277 49q150 0 279.5 -49t225 -139.5t150.5 -228.5t55 -306q0 -215 -94.5 -380.5t-255 -253t-360.5 -87.5q-148 0 -278 51.5t-226 143.5t-151.5 228.5t-55.5 297.5zM248 694q0 -132 45 -245t122.5 -191.5t186 -123 t232.5 -44.5q256 0 421.5 168.5t165.5 435.5q0 142 -44 257.5t-122 192t-186 118t-235 41.5q-168 0 -300 -71t-209 -210.5t-77 -327.5zM502 700q0 146 90 245t256 99q58 0 115.5 -6t119.5 -6v-102q-66 0 -119.5 6t-93.5 6q-120 0 -179.5 -66.5t-59.5 -177.5 q0 -112 63.5 -186t192.5 -74q58 0 107 14t69 28l20 14v-107q-7 -6 -21.5 -14.5t-70 -22.5t-123.5 -14q-94 0 -166 29t-115 80t-64 115.5t-21 139.5z" />
<glyph unicode="&#xaa;" horiz-adv-x="888" d="M121 920q0 77 57.5 124.5t171.5 47.5q130 0 223 -37v159q0 64 -32.5 90.5t-96.5 26.5q-38 0 -117.5 -6t-148.5 -6v88q78 0 162 6t131 6q116 0 158.5 -48t42.5 -165v-305q0 -61 51 -61q12 0 23.5 3t16.5 6l5 3v-72q-23 -18 -76 -18q-33 0 -56 11t-33.5 29t-14.5 33.5 t-4 30.5q-97 -121 -254 -121q-105 0 -157 49t-52 126zM225 928q0 -42 31 -68t94 -26q144 0 223 110v43q-86 37 -206 37q-69 0 -105.5 -25.5t-36.5 -70.5z" />
<glyph unicode="&#xab;" horiz-adv-x="1337" d="M143 446v156q80 23 139 47t114 59.5t88 84.5t42 110h121q-6 -75 -44 -139t-97.5 -108.5t-123 -75t-132.5 -48.5v-16q69 -18 132.5 -48.5t123 -75t97.5 -108.5t44 -139h-121q-9 61 -42 110t-88 84.5t-114 59.5t-139 47zM731 446v156q80 23 139 47t114 59.5t88 84.5t42 110 h121q-6 -75 -44 -139t-97.5 -108.5t-123 -75t-132.5 -48.5v-16q69 -18 132.5 -48.5t123 -75t97.5 -108.5t44 -139h-121q-9 61 -42 110t-88 84.5t-114 59.5t-139 47z" />
<glyph unicode="&#xac;" horiz-adv-x="1683" d="M113 899v113q322 -4 751 -4l633 4q-4 -348 -4 -516l4 -521h-113q5 223 5 521q0 46 -1.5 213.5t-1.5 191.5q-299 2 -522 2z" />
<glyph unicode="&#xad;" horiz-adv-x="935" d="M154 606v119q133 -4 313 -4l313 4v-119q-137 6 -313 6q-80 0 -158 -1.5t-117 -2.5z" />
<glyph unicode="&#xae;" horiz-adv-x="1669" d="M123 696q0 168 56 306t152.5 228.5t225.5 139.5t277 49q150 0 279.5 -49t225 -139.5t150.5 -228.5t55 -306q0 -215 -94.5 -380.5t-255 -253t-360.5 -87.5q-148 0 -278 51.5t-226 143.5t-151.5 228.5t-55.5 297.5zM248 694q0 -132 45 -245t122.5 -191.5t186 -123 t232.5 -44.5q256 0 421.5 168.5t165.5 435.5q0 142 -44 257.5t-122 192t-186 118t-235 41.5q-168 0 -300 -71t-209 -210.5t-77 -327.5zM571 348q0 1 1 50.5t2 130.5t1 161l-4 342h211q183 0 268 -57.5t85 -159.5q0 -56 -21.5 -99.5t-54 -67.5t-63 -36.5t-56.5 -15.5 l186 -248h-153q0 19 -29.5 66t-118.5 172h-129q0 -64 0.5 -118.5t1 -84.5t0.5 -35h-127zM692 670h131q97 0 144 35.5t47 97.5q0 135 -223 135h-99v-268z" />
<glyph unicode="&#xaf;" horiz-adv-x="555" d="M-61 1229v106q149 -4 337 -4l340 4v-106q-156 4 -340 4z" />
<glyph unicode="&#xb0;" horiz-adv-x="714" d="M123 1171q0 98 68 168t165 70q98 0 168 -70t70 -168t-69.5 -165.5t-168.5 -67.5q-97 0 -165 67.5t-68 165.5zM225 1171q0 -56 38.5 -93.5t92.5 -37.5q58 0 98 37.5t40 93.5q0 57 -40.5 97.5t-97.5 40.5q-53 0 -92 -40.5t-39 -97.5z" />
<glyph unicode="&#xb1;" d="M182 115v112q165 -4 461 -4l461 4v-112q-167 4 -461 4zM182 862v113q139 -4 406 -4l-4 379h118q-4 -110 -4 -379l406 4v-113q-141 4 -406 4l4 -354h-118q4 95 4 354z" />
<glyph unicode="&#xb2;" horiz-adv-x="888" d="M145 641v88q148 94 228.5 149.5t135 106t71 87t16.5 83.5q0 85 -53 125.5t-137 40.5q-42 0 -108 -9t-130 -9v102q75 0 145 7t107 7q138 0 222.5 -63t84.5 -180q0 -57 -14 -99t-56 -93.5t-122.5 -110t-210.5 -136.5l413 4v-100q-123 4 -293 4z" />
<glyph unicode="&#xb3;" horiz-adv-x="868" d="M152 694v109q4 -3 11.5 -9t34 -20.5t56.5 -25.5t77 -20t97 -9q99 0 151 38t52 105t-51.5 99t-180.5 32l-100 -4q151 162 190 197q50 50 65 70t15 34v13h-147l-270 -5v101q104 -4 270 -4l287 4v-62q0 -37 -21 -69t-90 -101l-98 -98q137 -6 191 -60.5t54 -146.5 q0 -106 -79 -172.5t-234 -66.5q-53 0 -101.5 7.5t-79.5 17.5t-54.5 20.5t-34.5 17.5z" />
<glyph unicode="&#xb4;" horiz-adv-x="561" d="M76 1165q198 256 198 283h146q-221 -252 -221 -283h-123z" />
<glyph unicode="&#xb5;" horiz-adv-x="1179" d="M166 -342q35 332 49 496q-35 74 -35 204v170l-6 531h139q-6 -274 -6 -531v-147q0 -153 59.5 -225t184.5 -72q62 0 118 26t92 59.5t68 80.5t45 74t25 55v149l-6 531h139q-6 -272 -6 -531v-256q0 -72 6 -140t12 -100l5 -32h-107q-27 98 -27 221v51q-16 -40 -38 -78.5 t-57 -79t-76.5 -70.5t-98 -49.5t-119.5 -19.5q-144 0 -225 72q-18 -225 -18 -389h-117z" />
<glyph unicode="&#xb6;" horiz-adv-x="1415" d="M123 553q0 249 167 390.5t498 141.5h535v-110h-123q0 -33 -2 -296t-2 -480q0 -202 1.5 -354.5t2.5 -203.5l2 -51h-117q7 157 7 609q0 440 -7 776h-137v-957h-205q-305 0 -462.5 136.5t-157.5 398.5z" />
<glyph unicode="&#xb7;" horiz-adv-x="505" d="M152 543q0 43 29.5 72.5t70.5 29.5q43 0 72.5 -29.5t29.5 -72.5q0 -41 -30 -71t-72 -30q-41 0 -70.5 30t-29.5 71z" />
<glyph unicode="&#xb8;" horiz-adv-x="454" d="M72 -190q78 -78 178 -78q102 0 102 63q0 28 -27 44.5t-59 23t-59 28t-27 58.5q0 21 10 39.5t20 26.5l9 8h55q-24 -23 -24 -52q0 -24 31.5 -38.5t70 -22.5t70 -36.5t31.5 -76.5q0 -62 -50 -100.5t-151 -38.5q-55 0 -100 14t-62 28l-18 13v97z" />
<glyph unicode="&#xb9;" horiz-adv-x="432" d="M164 641q4 193 4 379l-4 377l104 22q-4 -227 -4 -399l4 -379h-104z" />
<glyph unicode="&#xba;" horiz-adv-x="872" d="M121 1083q0 160 84.5 251t230.5 91q147 0 231.5 -90.5t84.5 -247.5t-84 -249.5t-232 -92.5q-146 0 -230.5 91t-84.5 247zM236 1085q0 -126 55.5 -186.5t144.5 -60.5t144 61t55 188q0 126 -55 184t-144 58t-144.5 -58.5t-55.5 -185.5z" />
<glyph unicode="&#xbb;" horiz-adv-x="1337" d="M102 145q6 75 44.5 139t98 108.5t123 75t132.5 48.5v16q-69 18 -132.5 48.5t-123 75t-98 108.5t-44.5 139h121q9 -61 42 -110t88 -84.5t114 -59.5t139 -47v-156q-80 -23 -139 -47t-114 -59.5t-88 -84.5t-42 -110h-121zM690 145q6 75 44 139t97.5 108.5t123 75t132.5 48.5 v16q-69 18 -132.5 48.5t-123 75t-97.5 108.5t-44 139h121q9 -61 42 -110t88 -84.5t114 -59.5t139 -47v-156q-80 -23 -139 -47t-114 -59.5t-88 -84.5t-42 -110h-121z" />
<glyph unicode="&#xbc;" horiz-adv-x="1437" d="M119 0q817 1327 817 1395h151q-821 -1317 -821 -1395h-147zM166 641q4 193 4 379l-4 377l125 22q-4 -227 -4 -399l4 -379h-125zM657 162v84q189 235 355 504h205q-7 -195 -7 -375v-119l142 2v-96q-56 2 -140 2l5 -164h-125q2 60 4 164h-49zM793 256h305v119q0 173 -4 305 z" />
<glyph unicode="&#xbd;" horiz-adv-x="1544" d="M119 0q817 1327 817 1395h151q-821 -1317 -821 -1395h-147zM166 641q4 193 4 379l-4 377l125 22q-4 -227 -4 -399l4 -379h-125zM852 0v88q148 94 228.5 149.5t135 106t71 87t16.5 83.5q0 85 -53.5 125.5t-137.5 40.5q-42 0 -108 -9t-130 -9v102q75 0 145 7t107 7 q138 0 222 -63t84 -180q0 -57 -13.5 -99t-56 -93.5t-122.5 -110t-210 -136.5l414 4v-100q-123 4 -293 4z" />
<glyph unicode="&#xbe;" horiz-adv-x="1785" d="M121 694v109l12 -9t34.5 -20.5t56.5 -25.5t77.5 -20t97.5 -9q98 0 149.5 38t51.5 105t-51 99t-178 32l-101 -4q152 162 189 197q51 49 65.5 69t14.5 35v13h-148l-270 -5v101q104 -4 270 -4l289 4v-62q0 -36 -21 -68t-90 -102l-100 -98q72 -3 122 -20t76 -46.5t37 -63 t11 -77.5q0 -106 -79.5 -172.5t-234.5 -66.5q-53 0 -101.5 7.5t-79.5 17.5t-54.5 20.5t-33.5 17.5zM467 0q817 1327 817 1395h152q-822 -1317 -822 -1395h-147zM1006 162v84q188 235 356 504h203q-4 -195 -4 -375v-119l139 2v-96q-96 2 -137 2l2 -164h-123q2 60 4 164h-49z M1143 256h303v119q0 239 -2 305z" />
<glyph unicode="&#xbf;" horiz-adv-x="968" d="M84 31q0 64 21 119t54.5 95.5t74.5 78.5t82 74.5t75.5 75t56.5 89.5t23 109h117q0 -63 -21.5 -118.5t-55 -96.5t-74 -79t-81 -74.5t-74 -74t-54.5 -86t-21 -102.5q0 -128 81 -199t236 -71q62 0 178 13t191 13v-114q-61 0 -188 -12.5t-199 -12.5q-205 0 -313.5 101.5 t-108.5 271.5zM430 999q0 43 28.5 72t71.5 29t73 -29t30 -72t-30 -72.5t-73 -29.5t-71.5 29.5t-28.5 72.5z" />
<glyph unicode="&#xc0;" d="M76 0q6 16 16 45t41.5 117.5t62 175.5t72 207t77.5 224t72.5 214t62 191.5t41.5 140.5t16 76h213q0 -46 115.5 -394t230.5 -673l116 -324h-147q0 2 -12 39t-41 127.5t-54 167.5q-9 0 -111.5 1t-191.5 1q-93 0 -205 -1t-122 -1q-105 -313 -105 -334h-147zM356 1755h148 q0 -12 49.5 -82.5t98.5 -134.5l50 -65h-124q0 14 -55.5 84.5t-110.5 134.5zM360 436q55 -2 295 -2q216 0 269 2q-265 820 -265 832h-30q0 -5 -67.5 -213t-134.5 -413z" />
<glyph unicode="&#xc1;" d="M76 0q6 16 16 45t41.5 117.5t62 175.5t72 207t77.5 224t72.5 214t62 191.5t41.5 140.5t16 76h213q0 -46 115.5 -394t230.5 -673l116 -324h-147q0 2 -12 39t-41 127.5t-54 167.5q-9 0 -111.5 1t-191.5 1q-93 0 -205 -1t-122 -1q-105 -313 -105 -334h-147zM360 436 q55 -2 295 -2q216 0 269 2q-265 820 -265 832h-30q0 -5 -67.5 -213t-134.5 -413zM586 1475q198 255 198 282h148q-221 -251 -221 -282h-125z" />
<glyph unicode="&#xc2;" d="M76 0q6 16 16 45t41.5 117.5t62 175.5t72 207t77.5 224t72.5 214t62 191.5t41.5 140.5t16 76h213q0 -46 115.5 -394t230.5 -673l116 -324h-147q0 2 -12 39t-41 127.5t-54 167.5q-9 0 -111.5 1t-191.5 1q-93 0 -205 -1t-122 -1q-105 -313 -105 -334h-147zM360 436 q55 -2 295 -2q216 0 269 2q-265 820 -265 832h-30q0 -5 -67.5 -213t-134.5 -413zM397 1479q172 233 172 270h150q0 -16 43 -83.5t86 -127.5l43 -59h-129q0 15 -17 47.5t-36 60.5t-41.5 60t-24.5 36q-117 -168 -117 -204h-129z" />
<glyph unicode="&#xc3;" d="M76 0q6 16 16 45t41.5 117.5t62 175.5t72 207t77.5 224t72.5 214t62 191.5t41.5 140.5t16 76h213q0 -46 115.5 -394t230.5 -673l116 -324h-147q0 2 -12 39t-41 127.5t-54 167.5q-9 0 -111.5 1t-191.5 1q-93 0 -205 -1t-122 -1q-105 -313 -105 -334h-147zM250 1516 q0 92 58 152.5t155 60.5q54 0 103 -16t79 -35.5t70 -35.5t78 -16q51 0 77.5 29.5t26.5 85.5h119q0 -85 -54.5 -146t-152.5 -61q-52 0 -101.5 15t-81 33t-72 33t-77.5 15q-110 0 -110 -114h-117zM360 436q55 -2 295 -2q216 0 269 2q-265 820 -265 832h-30q0 -5 -67.5 -213 t-134.5 -413z" />
<glyph unicode="&#xc4;" d="M76 0q6 16 16 45t41.5 117.5t62 175.5t72 207t77.5 224t72.5 214t62 191.5t41.5 140.5t16 76h213q0 -46 115.5 -394t230.5 -673l116 -324h-147q0 2 -12 39t-41 127.5t-54 167.5q-9 0 -111.5 1t-191.5 1q-93 0 -205 -1t-122 -1q-105 -313 -105 -334h-147zM356 1683 q0 38 24.5 63.5t61.5 25.5t62.5 -25.5t25.5 -63.5q0 -37 -25.5 -61.5t-62.5 -24.5t-61.5 24.5t-24.5 61.5zM360 436q55 -2 295 -2q216 0 269 2q-265 820 -265 832h-30q0 -5 -67.5 -213t-134.5 -413zM762 1683q0 38 25 63.5t61 25.5q38 0 63 -25.5t25 -63.5q0 -37 -25 -61.5 t-63 -24.5q-36 0 -61 25t-25 61z" />
<glyph unicode="&#xc5;" d="M76 0q389 1083 450 1335q-46 22 -75 72.5t-29 112.5q0 94 65 157.5t160 63.5t158 -63.5t63 -157.5q0 -65 -30 -115.5t-78 -71.5q29 -113 142 -446t212 -610l98 -277h-147q0 2 -12 39t-41 127.5t-54 167.5q-9 0 -111.5 1t-191.5 1q-93 0 -205 -1t-122 -1 q-105 -313 -105 -334h-147zM360 436q55 -2 295 -2q216 0 269 2q-265 820 -265 832h-30q0 -5 -67.5 -213t-134.5 -413zM518 1522q0 -55 36 -92t93 -37q55 0 91 38t36 91q0 55 -36.5 92t-90.5 37q-57 0 -93 -36t-36 -93z" />
<glyph unicode="&#xc6;" horiz-adv-x="1912" d="M70 0l700 1391q138 -5 610 -5l387 5v-117q-149 6 -387 6q-27 0 -142 -2t-132 -2q0 -38 -2 -244t-2 -330q43 -2 262 -2l379 5v-109q-141 4 -379 4q-211 0 -262 -2q0 -120 2 -287t2 -196q66 -4 283 -4q106 0 200.5 1.5t136.5 3.5l41 1v-117q-140 4 -378 4l-414 -4 q4 142 6 330q-19 0 -115 1t-164 1q-225 0 -327 -4q-9 -19 -50.5 -105.5t-68.5 -146.5t-31 -76h-155zM422 430h280q68 0 164 1t115 1q2 47 2 264q0 274 -6 580q-121 0 -135 -2l-190 -379q-190 -379 -230 -465z" />
<glyph unicode="&#xc7;" horiz-adv-x="1284" d="M121 694q0 158 46.5 290t133 227t217.5 148.5t293 53.5q76 0 192.5 -14.5t178.5 -14.5v-114q-70 0 -179.5 14t-181.5 14q-271 0 -421 -160t-150 -452q0 -295 145 -449.5t410 -154.5q71 0 135.5 9.5t106.5 23t74 27t47 22.5l14 10v-121q-5 -3 -14 -8t-42 -18.5t-72 -24 t-104.5 -19.5t-138.5 -10h-25q0 -22 21 -35t51 -21t59.5 -19t50.5 -36t21 -65q0 -62 -49.5 -100.5t-148.5 -38.5q-56 0 -101 14t-62 28l-18 13v97q3 -6 20.5 -22t61.5 -36t94 -20q103 0 103 63q0 23 -17.5 37t-42.5 22t-50 16.5t-42.5 28t-17.5 50.5q0 18 4 26 q-298 20 -450 211.5t-152 507.5z" />
<glyph unicode="&#xc8;" horiz-adv-x="1132" d="M195 0q8 355 8 696q0 140 -2 314t-4 278l-2 103q1 0 17.5 -0.5t50 -1.5t80.5 -1.5t124 -1t166 -0.5l354 5v-117q-116 6 -354 6q-166 0 -307 -6q0 -38 -2 -243t-2 -329q43 -2 286 -2l355 5v-109q-117 4 -355 4q-235 0 -286 -2q0 -120 2 -287t2 -196q66 -4 307 -4 q106 0 194.5 1.5t124.5 3.5l35 1v-117q-116 4 -354 4zM324 1755h147q0 -12 49.5 -82.5t99.5 -134.5l50 -65h-125q0 14 -55.5 84.5t-110.5 134.5z" />
<glyph unicode="&#xc9;" horiz-adv-x="1132" d="M195 0q8 355 8 696q0 140 -2 314t-4 278l-2 103q1 0 17.5 -0.5t50 -1.5t80.5 -1.5t124 -1t166 -0.5l354 5v-117q-116 6 -354 6q-166 0 -307 -6q0 -38 -2 -243t-2 -329q43 -2 286 -2l355 5v-109q-117 4 -355 4q-235 0 -286 -2q0 -120 2 -287t2 -196q66 -4 307 -4 q106 0 194.5 1.5t124.5 3.5l35 1v-117q-116 4 -354 4zM524 1475q197 255 197 282h147q-221 -251 -221 -282h-123z" />
<glyph unicode="&#xca;" horiz-adv-x="1132" d="M195 0q8 355 8 696q0 140 -2 314t-4 278l-2 103q1 0 17.5 -0.5t50 -1.5t80.5 -1.5t124 -1t166 -0.5l354 5v-117q-116 6 -354 6q-166 0 -307 -6q0 -38 -2 -243t-2 -329q43 -2 286 -2l355 5v-109q-117 4 -355 4q-235 0 -286 -2q0 -120 2 -287t2 -196q66 -4 307 -4 q106 0 194.5 1.5t124.5 3.5l35 1v-117q-116 4 -354 4zM352 1479q172 233 172 270h150q0 -16 43 -83.5t86 -127.5l43 -59h-129q0 15 -17 47.5t-36 60.5t-41.5 60t-24.5 36q-117 -168 -117 -204h-129z" />
<glyph unicode="&#xcb;" horiz-adv-x="1132" d="M195 0q8 355 8 696q0 140 -2 314t-4 278l-2 103q1 0 17.5 -0.5t50 -1.5t80.5 -1.5t124 -1t166 -0.5l354 5v-117q-116 6 -354 6q-166 0 -307 -6q0 -38 -2 -243t-2 -329q43 -2 286 -2l355 5v-109q-117 4 -355 4q-235 0 -286 -2q0 -120 2 -287t2 -196q66 -4 307 -4 q106 0 194.5 1.5t124.5 3.5l35 1v-117q-116 4 -354 4zM289 1683q0 38 24.5 63.5t61.5 25.5t62.5 -25.5t25.5 -63.5q0 -37 -25.5 -61.5t-62.5 -24.5t-61.5 24.5t-24.5 61.5zM694 1683q0 38 25.5 63.5t62.5 25.5t61.5 -25.5t24.5 -63.5q0 -37 -24.5 -61.5t-61.5 -24.5 t-62.5 24.5t-25.5 61.5z" />
<glyph unicode="&#xcc;" horiz-adv-x="522" d="M-27 1755h148q0 -12 49 -82.5t98 -134.5l49 -65h-122q0 14 -55.5 84.5t-111.5 134.5zM195 0q8 355 8 696q0 140 -2 314t-4 278l-2 103h133q-6 -381 -6 -695l4 -696h-131z" />
<glyph unicode="&#xcd;" horiz-adv-x="522" d="M195 0q8 355 8 696q0 140 -2 314t-4 278l-2 103h133q-6 -381 -6 -695l4 -696h-131zM205 1475q198 255 198 282h148q-221 -251 -221 -282h-125z" />
<glyph unicode="&#xce;" horiz-adv-x="522" d="M14 1479q172 233 172 270h150q0 -16 43 -83.5t86 -127.5l43 -59h-129q0 15 -17 47.5t-36 60.5t-41.5 60t-24.5 36q-117 -168 -117 -204h-129zM195 0q8 355 8 696q0 140 -2 314t-4 278l-2 103h133q-6 -381 -6 -695l4 -696h-131z" />
<glyph unicode="&#xcf;" horiz-adv-x="522" d="M-27 1683q0 38 24.5 63.5t61.5 25.5t62.5 -25.5t25.5 -63.5q0 -37 -25.5 -61.5t-62.5 -24.5t-61.5 24.5t-24.5 61.5zM195 0q8 355 8 696q0 140 -2 314t-4 278l-2 103h133q-6 -381 -6 -695l4 -696h-131zM379 1683q0 38 25 63.5t61 25.5q38 0 63 -25.5t25 -63.5 q0 -37 -25 -61.5t-63 -24.5q-36 0 -61 25t-25 61z" />
<glyph unicode="&#xd0;" horiz-adv-x="1470" d="M23 647v94q61 -4 190 -4l-6 654h407q366 0 550 -178.5t184 -505.5q0 -335 -185 -521t-549 -186h-407q6 324 6 649zM330 651q0 -132 1 -262t2 -207t1 -80h260q320 0 470 150.5t150 462.5q0 273 -159 421t-467 148h-252q0 -5 -1.5 -84.5t-3 -208.5t-1.5 -254l372 4v-94 q-188 4 -372 4z" />
<glyph unicode="&#xd1;" horiz-adv-x="1456" d="M195 0q8 355 8 696q0 140 -2 314t-4 278l-2 103h137l803 -1207q0 42 1 219t1 293l-7 695h132q-7 -381 -7 -695l5 -696h-134q-137 209 -332 502t-323 485t-147 223q-5 -278 -5 -514q0 -152 2.5 -326t4.5 -272l2 -98h-133zM367 1518q0 92 58 152.5t155 60.5q54 0 102.5 -16 t79 -35.5t70 -35.5t77.5 -16q51 0 78 29.5t27 85.5h119q0 -85 -54.5 -146t-152.5 -61q-52 0 -101.5 15t-81 33t-72 33t-77.5 15q-55 0 -83 -29.5t-28 -84.5h-116z" />
<glyph unicode="&#xd2;" horiz-adv-x="1529" d="M119 680q0 213 80.5 380.5t226.5 261t332 93.5q140 0 259 -48t207 -138t137.5 -228.5t49.5 -310.5q0 -153 -43.5 -284t-124 -226.5t-202.5 -150t-273 -54.5q-197 0 -345.5 91.5t-226 251t-77.5 362.5zM242 684q0 -279 150.5 -438.5t383.5 -159.5q158 0 276 81t177 214 t59 297q0 191 -69.5 333t-188 214.5t-268.5 72.5q-156 0 -275.5 -80t-182 -219t-62.5 -315zM485 1755h146q0 -12 49.5 -82.5t99.5 -134.5l49 -65h-122q0 14 -55.5 84.5t-111.5 134.5z" />
<glyph unicode="&#xd3;" horiz-adv-x="1529" d="M119 680q0 213 80.5 380.5t226.5 261t332 93.5q140 0 259 -48t207 -138t137.5 -228.5t49.5 -310.5q0 -153 -43.5 -284t-124 -226.5t-202.5 -150t-273 -54.5q-197 0 -345.5 91.5t-226 251t-77.5 362.5zM242 684q0 -279 150.5 -438.5t383.5 -159.5q158 0 276 81t177 214 t59 297q0 191 -69.5 333t-188 214.5t-268.5 72.5q-156 0 -275.5 -80t-182 -219t-62.5 -315zM719 1475q199 255 199 282h145q-221 -251 -221 -282h-123z" />
<glyph unicode="&#xd4;" horiz-adv-x="1529" d="M119 680q0 213 80.5 380.5t226.5 261t332 93.5q140 0 259 -48t207 -138t137.5 -228.5t49.5 -310.5q0 -153 -43.5 -284t-124 -226.5t-202.5 -150t-273 -54.5q-197 0 -345.5 91.5t-226 251t-77.5 362.5zM242 684q0 -279 150.5 -438.5t383.5 -159.5q158 0 276 81t177 214 t59 297q0 191 -69.5 333t-188 214.5t-268.5 72.5q-156 0 -275.5 -80t-182 -219t-62.5 -315zM516 1479q172 233 172 270h148q0 -16 43 -83.5t86 -127.5l43 -59h-127q0 36 -121 204q-3 -4 -24 -35t-40 -60t-36 -61.5t-17 -47.5h-127z" />
<glyph unicode="&#xd5;" horiz-adv-x="1529" d="M119 680q0 213 80.5 380.5t226.5 261t332 93.5q140 0 259 -48t207 -138t137.5 -228.5t49.5 -310.5q0 -153 -43.5 -284t-124 -226.5t-202.5 -150t-273 -54.5q-197 0 -345.5 91.5t-226 251t-77.5 362.5zM242 684q0 -279 150.5 -438.5t383.5 -159.5q158 0 276 81t177 214 t59 297q0 191 -69.5 333t-188 214.5t-268.5 72.5q-156 0 -275.5 -80t-182 -219t-62.5 -315zM375 1518q0 92 58 152.5t155 60.5q54 0 103 -16t79 -35.5t70 -35.5t78 -16q51 0 77.5 29.5t26.5 85.5h119q0 -85 -54.5 -146t-152.5 -61q-52 0 -101.5 15t-81 33t-72 33t-77.5 15 q-55 0 -84 -30t-29 -84h-114z" />
<glyph unicode="&#xd6;" horiz-adv-x="1529" d="M119 680q0 213 80.5 380.5t226.5 261t332 93.5q140 0 259 -48t207 -138t137.5 -228.5t49.5 -310.5q0 -153 -43.5 -284t-124 -226.5t-202.5 -150t-273 -54.5q-197 0 -345.5 91.5t-226 251t-77.5 362.5zM242 684q0 -279 150.5 -438.5t383.5 -159.5q158 0 276 81t177 214 t59 297q0 191 -69.5 333t-188 214.5t-268.5 72.5q-156 0 -275.5 -80t-182 -219t-62.5 -315zM471 1686q0 38 24.5 63t61.5 25t62.5 -25t25.5 -63q0 -37 -25.5 -62t-62.5 -25t-61.5 25t-24.5 62zM877 1686q0 38 25.5 63t62.5 25t61.5 -25t24.5 -63q0 -37 -24.5 -62t-61.5 -25 t-62.5 25t-25.5 62z" />
<glyph unicode="&#xd7;" horiz-adv-x="1193" d="M127 258q270 262 395 385l-395 391l80 80q264 -270 389 -397l391 397l80 -80q-272 -266 -397 -391l397 -385l-80 -80q-266 268 -391 391l-389 -391z" />
<glyph unicode="&#xd8;" horiz-adv-x="1529" d="M119 680q0 213 80.5 380.5t226.5 261t332 93.5q116 0 219 -35q51 148 51 168h143q-35 -84 -86 -213q152 -86 239 -251t87 -394q0 -153 -43.5 -284t-124 -226.5t-202.5 -150t-273 -54.5q-88 0 -188 27q-45 -140 -45 -160h-142q31 78 78 199q-167 82 -259.5 250t-92.5 389z M242 684q0 -190 72.5 -327t199.5 -207q307 795 422 1118q-80 30 -174 30q-156 0 -275.5 -80t-182 -219t-62.5 -315zM616 111q80 -25 160 -25q158 0 276 81t177 214t59 297q0 186 -66.5 325.5t-183.5 213.5q-297 -766 -422 -1106z" />
<glyph unicode="&#xd9;" horiz-adv-x="1445" d="M176 1391h139q-8 -426 -8 -773q0 -272 111.5 -403t318.5 -131q404 0 404 537l-6 770h133q-6 -381 -6 -783q0 -311 -134 -474t-389 -163q-555 0 -555 662q0 168 -2 357.5t-4 295.5zM465 1755h147q0 -12 49 -82.5t99 -134.5l49 -65h-123q0 14 -55 84.5t-111 134.5z" />
<glyph unicode="&#xda;" horiz-adv-x="1445" d="M176 1391h139q-8 -426 -8 -773q0 -272 111.5 -403t318.5 -131q404 0 404 537l-6 770h133q-6 -381 -6 -783q0 -311 -134 -474t-389 -163q-555 0 -555 662q0 168 -2 357.5t-4 295.5zM643 1475q199 255 199 282h147q-221 -251 -221 -282h-125z" />
<glyph unicode="&#xdb;" horiz-adv-x="1445" d="M176 1391h139q-8 -426 -8 -773q0 -272 111.5 -403t318.5 -131q404 0 404 537l-6 770h133q-6 -381 -6 -783q0 -311 -134 -474t-389 -163q-555 0 -555 662q0 168 -2 357.5t-4 295.5zM479 1479q172 233 172 270h150q0 -16 43 -83.5t86 -127.5l43 -59h-129q0 15 -17 47.5 t-36 60.5t-41.5 60t-24.5 36q-117 -168 -117 -204h-129z" />
<glyph unicode="&#xdc;" horiz-adv-x="1445" d="M176 1391h139q-8 -426 -8 -773q0 -272 111.5 -403t318.5 -131q404 0 404 537l-6 770h133q-6 -381 -6 -783q0 -311 -134 -474t-389 -163q-555 0 -555 662q0 168 -2 357.5t-4 295.5zM442 1683q0 38 24.5 63.5t61.5 25.5t62.5 -25.5t25.5 -63.5q0 -37 -25.5 -61.5 t-62.5 -24.5t-61.5 24.5t-24.5 61.5zM848 1683q0 38 25 63.5t61 25.5q38 0 63 -25.5t25 -63.5q0 -37 -25 -61.5t-63 -24.5q-36 0 -61 25t-25 61z" />
<glyph unicode="&#xdd;" horiz-adv-x="1228" d="M66 1391h155q88 -178 187 -373t154 -300l56 -106q195 381 388 779h149q-121 -217 -234.5 -429.5t-175 -330.5t-67.5 -129q0 -12 -1 -69t-1 -103l6 -330h-131q8 168 8 330q0 43 -1 102t-1 70q-5 8 -70 130t-181.5 333t-239.5 426zM549 1475q199 255 199 282h147 q-221 -251 -221 -282h-125z" />
<glyph unicode="&#xde;" horiz-adv-x="1267" d="M195 0q8 382 8 733q0 145 -2 327.5t-4 293.5l-2 110h135q-4 -126 -4 -290h260q163 0 279.5 -30.5t184.5 -90t99 -138t31 -182.5q0 -209 -143 -326.5t-431 -117.5h-282l4 -289h-133zM324 401h305q212 0 318 88t106 244q0 154 -108.5 241t-342.5 87h-278v-660z" />
<glyph unicode="&#xdf;" horiz-adv-x="1157" d="M164 0q6 271 6 530l-2 396q0 229 109.5 344.5t308.5 115.5q190 0 294.5 -101t104.5 -288q0 -59 -17.5 -112.5t-43.5 -90.5t-56.5 -70.5t-56.5 -54.5t-43.5 -39.5t-17.5 -29.5q0 -16 18.5 -27.5t71.5 -31.5q120 -45 172.5 -103.5t52.5 -163.5q0 -141 -96 -220t-277 -79 q-63 0 -120 11t-83 22l-26 12v113q10 -6 28 -15t76 -24.5t119 -15.5q254 0 254 188q0 53 -34 92t-82 62t-96 43.5t-82 48t-34 63.5q0 29 25.5 61.5t62 65.5t73 71.5t62 93t25.5 116.5q0 143 -73 217t-203 74q-136 0 -215.5 -83.5t-79.5 -246.5v-414l6 -530h-131z" />
<glyph unicode="&#xe0;" horiz-adv-x="1093" d="M90 215q0 46 10 81t37 71t79 61.5t129.5 46.5t195.5 31t272 10q2 37 2 217q0 116 -66 177t-194 61q-61 0 -179 -13.5t-214 -13.5v115q80 0 210.5 12t194.5 12q184 0 277.5 -84.5t93.5 -250.5q0 -62 -4 -254.5t-4 -274.5q0 -54 3 -108.5t6 -82.5l3 -28h-104 q-17 68 -23 174q-157 -199 -401 -199q-160 0 -242 70.5t-82 169.5zM217 229q0 -69 55.5 -111t165.5 -42q67 0 129.5 19.5t102.5 45t75 57.5t48 49t20 27v162q-154 -1 -266 -13.5t-174.5 -31t-98.5 -47.5t-46.5 -55t-10.5 -60zM274 1448h148q0 -12 49 -83t98 -135l49 -65 h-122q0 14 -55.5 84.5t-110.5 134.5z" />
<glyph unicode="&#xe1;" horiz-adv-x="1093" d="M90 215q0 46 10 81t37 71t79 61.5t129.5 46.5t195.5 31t272 10q2 37 2 217q0 116 -66 177t-194 61q-61 0 -179 -13.5t-214 -13.5v115q80 0 210.5 12t194.5 12q184 0 277.5 -84.5t93.5 -250.5q0 -62 -4 -254.5t-4 -274.5q0 -54 3 -108.5t6 -82.5l3 -28h-104 q-17 68 -23 174q-157 -199 -401 -199q-160 0 -242 70.5t-82 169.5zM217 229q0 -69 55.5 -111t165.5 -42q67 0 129.5 19.5t102.5 45t75 57.5t48 49t20 27v162q-154 -1 -266 -13.5t-174.5 -31t-98.5 -47.5t-46.5 -55t-10.5 -60zM459 1165q198 256 198 283h146 q-221 -252 -221 -283h-123z" />
<glyph unicode="&#xe2;" horiz-adv-x="1093" d="M90 215q0 46 10 81t37 71t79 61.5t129.5 46.5t195.5 31t272 10q2 37 2 217q0 116 -66 177t-194 61q-61 0 -179 -13.5t-214 -13.5v115q80 0 210.5 12t194.5 12q184 0 277.5 -84.5t93.5 -250.5q0 -62 -4 -254.5t-4 -274.5q0 -54 3 -108.5t6 -82.5l3 -28h-104 q-17 68 -23 174q-157 -199 -401 -199q-160 0 -242 70.5t-82 169.5zM217 229q0 -69 55.5 -111t165.5 -42q67 0 129.5 19.5t102.5 45t75 57.5t48 49t20 27v162q-154 -1 -266 -13.5t-174.5 -31t-98.5 -47.5t-46.5 -55t-10.5 -60zM293 1165q172 234 172 271h149q0 -16 43 -84 t86 -128l43 -59h-129q0 15 -17 47.5t-35.5 61t-41 61t-24.5 35.5q-117 -168 -117 -205h-129z" />
<glyph unicode="&#xe3;" horiz-adv-x="1093" d="M90 215q0 46 10 81t37 71t79 61.5t129.5 46.5t195.5 31t272 10q2 37 2 217q0 116 -66 177t-194 61q-61 0 -179 -13.5t-214 -13.5v115q80 0 210.5 12t194.5 12q184 0 277.5 -84.5t93.5 -250.5q0 -62 -4 -254.5t-4 -274.5q0 -54 3 -108.5t6 -82.5l3 -28h-104 q-17 68 -23 174q-157 -199 -401 -199q-160 0 -242 70.5t-82 169.5zM139 1229q0 92 58 152.5t155 60.5q54 0 103 -16t79 -35.5t70 -35.5t78 -16q51 0 77.5 29.5t26.5 85.5h119q0 -85 -54.5 -146t-152.5 -61q-52 0 -101.5 15t-80.5 33t-71.5 33t-77.5 15q-55 0 -84 -30 t-29 -84h-115zM217 229q0 -69 55.5 -111t165.5 -42q67 0 129.5 19.5t102.5 45t75 57.5t48 49t20 27v162q-154 -1 -266 -13.5t-174.5 -31t-98.5 -47.5t-46.5 -55t-10.5 -60z" />
<glyph unicode="&#xe4;" horiz-adv-x="1093" d="M90 215q0 46 10 81t37 71t79 61.5t129.5 46.5t195.5 31t272 10q2 37 2 217q0 116 -66 177t-194 61q-61 0 -179 -13.5t-214 -13.5v115q80 0 210.5 12t194.5 12q184 0 277.5 -84.5t93.5 -250.5q0 -62 -4 -254.5t-4 -274.5q0 -54 3 -108.5t6 -82.5l3 -28h-104 q-17 68 -23 174q-157 -199 -401 -199q-160 0 -242 70.5t-82 169.5zM217 229q0 -69 55.5 -111t165.5 -42q67 0 129.5 19.5t102.5 45t75 57.5t48 49t20 27v162q-154 -1 -266 -13.5t-174.5 -31t-98.5 -47.5t-46.5 -55t-10.5 -60zM238 1395q0 -37 24.5 -61.5t61.5 -24.5 t62.5 24.5t25.5 61.5q0 38 -25.5 63t-62.5 25t-61.5 -25t-24.5 -63zM643 1395q0 38 25 63t61 25q38 0 63 -25t25 -63q0 -37 -25 -61.5t-63 -24.5q-36 0 -61 25t-25 61z" />
<glyph unicode="&#xe5;" horiz-adv-x="1093" d="M90 215q0 46 10 81t37 71t79 61.5t129.5 46.5t195.5 31t272 10q2 37 2 217q0 116 -66 177t-194 61q-61 0 -179 -13.5t-214 -13.5v115q80 0 210.5 12t194.5 12q184 0 277.5 -84.5t93.5 -250.5q0 -62 -4 -254.5t-4 -274.5q0 -54 3 -108.5t6 -82.5l3 -28h-104 q-17 68 -23 174q-157 -199 -401 -199q-160 0 -242 70.5t-82 169.5zM217 229q0 -69 55.5 -111t165.5 -42q67 0 129.5 19.5t102.5 45t75 57.5t48 49t20 27v162q-154 -1 -266 -13.5t-174.5 -31t-98.5 -47.5t-46.5 -55t-10.5 -60zM299 1407q0 94 64 157.5t159 63.5 q96 0 158.5 -63.5t62.5 -157.5q0 -93 -62.5 -155t-158.5 -62q-95 0 -159 62.5t-64 154.5zM393 1411q0 -56 36 -92.5t93 -36.5q55 0 91 37t36 92t-36.5 91t-90.5 36q-56 0 -92.5 -35.5t-36.5 -91.5z" />
<glyph unicode="&#xe6;" horiz-adv-x="1839" d="M92 240q0 123 87.5 194.5t283.5 71.5q84 0 216.5 -8t145.5 -9q-2 16 -2 60.5t1 101.5t1 70q0 126 -76.5 189t-220.5 63q-53 0 -154.5 -14.5t-197.5 -14.5v115q71 0 191 12t194 12q298 0 352 -219q61 104 161 161.5t226 57.5q206 0 313 -121.5t107 -326.5 q0 -29 -1.5 -53.5t-2.5 -34.5l-2 -10h-768q0 -222 103 -338.5t305 -116.5q32 0 64 4.5t58 10.5t52.5 16t45 18.5t38.5 19.5t30.5 17.5t23 15t13.5 9.5v-115q-1 0 -16.5 -10.5t-28.5 -17.5t-37 -19t-50.5 -20.5t-59 -17.5t-71.5 -13.5t-81 -4.5q-168 0 -275.5 66t-170.5 192 q-38 -55 -79.5 -97.5t-98.5 -80.5t-132 -59t-163 -21q-167 0 -245.5 76t-78.5 189zM217 248q0 -79 55 -125.5t170 -46.5q230 0 404 246q-12 40 -17 88q-45 1 -167 7.5t-173 6.5q-147 0 -209.5 -49t-62.5 -127zM950 623h645q2 16 2 34q0 144 -76.5 231t-222.5 87 q-138 0 -234.5 -97t-113.5 -255z" />
<glyph unicode="&#xe7;" horiz-adv-x="1028" d="M113 506q0 268 130.5 422.5t374.5 154.5q66 0 150 -12t152 -12v-115q-69 0 -150.5 14.5t-153.5 14.5q-175 0 -275.5 -120t-100.5 -329q0 -215 105 -328.5t319 -113.5q72 0 136 15t92 29l28 15v-110q-11 -6 -31.5 -15.5t-92 -25t-151.5 -15.5q-13 0 -30 1t-19 1 q-2 -22 18.5 -35.5t50.5 -22t60.5 -19.5t52 -37t21.5 -66q0 -62 -49.5 -100.5t-149.5 -38.5q-56 0 -101 14t-62 28l-17 13v97q3 -6 20.5 -22t61.5 -36t94 -20q102 0 102 63q0 28 -26.5 44.5t-58.5 23t-58.5 28t-26.5 58.5q0 17 7 35q-209 29 -315.5 165.5t-106.5 356.5z" />
<glyph unicode="&#xe8;" horiz-adv-x="1126" d="M111 537q0 126 37.5 230.5t102.5 173t151 105.5t184 37q205 0 311.5 -121.5t106.5 -326.5q0 -29 -2 -53.5t-4 -34.5l-3 -10h-757q0 -217 102 -336t307 -119q32 0 64 4.5t58 10.5t53 16t45.5 18.5t38.5 19.5t30 17.5t23 15t14 9.5v-115q-1 -1 -16 -10.5t-28.5 -17 t-37 -19.5t-50 -21t-59 -17.5t-72.5 -13t-83 -4.5q-169 0 -286.5 71.5t-173.5 196t-56 294.5zM244 623h637v34q0 144 -75.5 231t-221.5 87q-132 0 -228.5 -98t-111.5 -254zM303 1448h148q0 -12 49.5 -83t99.5 -135l49 -65h-125q0 14 -55 84.5t-111 134.5z" />
<glyph unicode="&#xe9;" horiz-adv-x="1126" d="M111 537q0 126 37.5 230.5t102.5 173t151 105.5t184 37q205 0 311.5 -121.5t106.5 -326.5q0 -29 -2 -53.5t-4 -34.5l-3 -10h-757q0 -217 102 -336t307 -119q32 0 64 4.5t58 10.5t53 16t45.5 18.5t38.5 19.5t30 17.5t23 15t14 9.5v-115q-1 -1 -16 -10.5t-28.5 -17 t-37 -19.5t-50 -21t-59 -17.5t-72.5 -13t-83 -4.5q-169 0 -286.5 71.5t-173.5 196t-56 294.5zM244 623h637v34q0 144 -75.5 231t-221.5 87q-132 0 -228.5 -98t-111.5 -254zM532 1165q199 256 199 283h146q-222 -252 -222 -283h-123z" />
<glyph unicode="&#xea;" horiz-adv-x="1126" d="M111 537q0 126 37.5 230.5t102.5 173t151 105.5t184 37q205 0 311.5 -121.5t106.5 -326.5q0 -29 -2 -53.5t-4 -34.5l-3 -10h-757q0 -217 102 -336t307 -119q32 0 64 4.5t58 10.5t53 16t45.5 18.5t38.5 19.5t30 17.5t23 15t14 9.5v-115q-1 -1 -16 -10.5t-28.5 -17 t-37 -19.5t-50 -21t-59 -17.5t-72.5 -13t-83 -4.5q-169 0 -286.5 71.5t-173.5 196t-56 294.5zM244 623h637v34q0 144 -75.5 231t-221.5 87q-132 0 -228.5 -98t-111.5 -254zM342 1165q172 234 172 271h150q0 -16 43 -84t86 -128l43 -59h-129q0 15 -17 47.5t-36 61t-41.5 61 t-24.5 35.5q-117 -168 -117 -205h-129z" />
<glyph unicode="&#xeb;" horiz-adv-x="1126" d="M111 537q0 126 37.5 230.5t102.5 173t151 105.5t184 37q205 0 311.5 -121.5t106.5 -326.5q0 -29 -2 -53.5t-4 -34.5l-3 -10h-757q0 -217 102 -336t307 -119q32 0 64 4.5t58 10.5t53 16t45.5 18.5t38.5 19.5t30 17.5t23 15t14 9.5v-115q-1 -1 -16 -10.5t-28.5 -17 t-37 -19.5t-50 -21t-59 -17.5t-72.5 -13t-83 -4.5q-169 0 -286.5 71.5t-173.5 196t-56 294.5zM244 623h637v34q0 144 -75.5 231t-221.5 87q-132 0 -228.5 -98t-111.5 -254zM305 1395q0 38 24.5 63t61.5 25q38 0 63 -25t25 -63q0 -37 -25 -61.5t-63 -24.5q-37 0 -61.5 24.5 t-24.5 61.5zM713 1395q0 38 24.5 63t61.5 25t62.5 -25t25.5 -63q0 -37 -25.5 -61.5t-62.5 -24.5t-61.5 24.5t-24.5 61.5z" />
<glyph unicode="&#xec;" horiz-adv-x="460" d="M-57 1448h145q0 -12 49.5 -83t99.5 -135l50 -65h-123q0 14 -55 84.5t-111 134.5zM164 0q8 271 8 530q0 108 -2 240t-4 210l-2 79h133q-8 -287 -8 -529q0 -115 2 -247.5t4 -207.5l2 -75h-133z" />
<glyph unicode="&#xed;" horiz-adv-x="460" d="M164 0q8 271 8 530q0 108 -2 240t-4 210l-2 79h133q-8 -287 -8 -529q0 -115 2 -247.5t4 -207.5l2 -75h-133zM174 1165q199 256 199 283h145q-221 -252 -221 -283h-123z" />
<glyph unicode="&#xee;" horiz-adv-x="460" d="M-14 1165q172 234 172 271h149q0 -16 43 -84t86 -128l43 -59h-129q0 15 -17 47.5t-36 61t-41.5 61t-24.5 35.5q-116 -167 -116 -205h-129zM164 0q8 271 8 530q0 108 -2 240t-4 210l-2 79h133q-8 -287 -8 -529q0 -115 2 -247.5t4 -207.5l2 -75h-133z" />
<glyph unicode="&#xef;" horiz-adv-x="460" d="M-57 1395q0 38 25 63t61 25q38 0 63 -25t25 -63q0 -37 -25 -61.5t-63 -24.5q-36 0 -61 25t-25 61zM164 0q8 271 8 530q0 108 -2 240t-4 210l-2 79h133q-8 -287 -8 -529q0 -115 2 -247.5t4 -207.5l2 -75h-133zM350 1395q0 38 24.5 63t61.5 25t62.5 -25t25.5 -63 q0 -37 -25.5 -61.5t-62.5 -24.5t-61.5 24.5t-24.5 61.5z" />
<glyph unicode="&#xf0;" horiz-adv-x="1216" d="M115 485q0 231 129 364.5t336 133.5q215 0 356 -141q-45 257 -221 383l-45 -107l-105 47q48 82 64 113q-72 42 -199 76v135q142 -34 254 -90l47 112l103 -45q-46 -83 -62 -114q173 -117 246.5 -304t73.5 -454q0 -159 -39 -279.5t-108.5 -193t-160 -108.5t-200.5 -36 q-116 0 -206.5 38.5t-147.5 107.5t-86 160.5t-29 201.5zM242 481q0 -186 91 -290.5t251 -104.5q80 0 147 29.5t119.5 88.5t81.5 157.5t29 228.5q0 16 -5 104q-43 49 -71 73q-125 103 -293 103q-164 0 -257 -101.5t-93 -287.5z" />
<glyph unicode="&#xf1;" horiz-adv-x="1189" d="M150 1059h120q19 -128 19 -234q124 258 373 258q368 0 368 -385v-168l6 -530h-131q6 273 6 530v146q0 299 -268 299q-66 0 -124 -25t-94 -58t-67 -79t-44 -73t-23 -54v-156q0 -115 2 -247.5t4 -207.5l2 -75h-133q8 271 8 530v107q0 116 -6 221.5t-12 153.5zM213 1229 q0 92 58 152.5t155 60.5q54 0 103 -16t79 -35.5t70 -35.5t78 -16q51 0 77.5 29.5t26.5 85.5h119q0 -85 -54.5 -146t-152.5 -61q-52 0 -101.5 15t-81 33t-72 33t-77.5 15q-110 0 -110 -114h-117z" />
<glyph unicode="&#xf2;" horiz-adv-x="1212" d="M111 524q0 255 129 407t366 152q240 0 368 -149t128 -397q0 -118 -31.5 -219t-91.5 -178t-156 -121t-217 -44q-233 0 -364 152t-131 397zM236 518q0 -194 97.5 -315t272.5 -121q170 0 268.5 122t98.5 318q0 224 -97.5 337.5t-269.5 113.5q-171 0 -270.5 -114.5 t-99.5 -340.5zM319 1448h146q0 -12 49.5 -83t99.5 -135l50 -65h-123q0 14 -55.5 84.5t-111.5 134.5z" />
<glyph unicode="&#xf3;" horiz-adv-x="1212" d="M111 524q0 255 129 407t366 152q240 0 368 -149t128 -397q0 -118 -31.5 -219t-91.5 -178t-156 -121t-217 -44q-233 0 -364 152t-131 397zM236 518q0 -194 97.5 -315t272.5 -121q170 0 268.5 122t98.5 318q0 224 -97.5 337.5t-269.5 113.5q-171 0 -270.5 -114.5 t-99.5 -340.5zM547 1165q198 256 198 283h146q-221 -252 -221 -283h-123z" />
<glyph unicode="&#xf4;" horiz-adv-x="1212" d="M111 524q0 255 129 407t366 152q240 0 368 -149t128 -397q0 -118 -31.5 -219t-91.5 -178t-156 -121t-217 -44q-233 0 -364 152t-131 397zM236 518q0 -194 97.5 -315t272.5 -121q170 0 268.5 122t98.5 318q0 224 -97.5 337.5t-269.5 113.5q-171 0 -270.5 -114.5 t-99.5 -340.5zM360 1165q172 234 172 271h148q0 -16 43 -84t86 -128l43 -59h-127q0 37 -121 205q-2 -4 -23.5 -35t-40.5 -60.5t-36 -62t-17 -47.5h-127z" />
<glyph unicode="&#xf5;" horiz-adv-x="1212" d="M111 524q0 255 129 407t366 152q240 0 368 -149t128 -397q0 -118 -31.5 -219t-91.5 -178t-156 -121t-217 -44q-233 0 -364 152t-131 397zM219 1229q0 92 58 152.5t157 60.5q53 0 102 -16t79 -35.5t70 -35.5t77 -16q106 0 106 115h117q0 -86 -54 -146.5t-151 -60.5 q-52 0 -101.5 15t-80.5 33t-71.5 33t-77.5 15q-55 0 -84 -30t-29 -84h-117zM236 518q0 -194 97.5 -315t272.5 -121q170 0 268.5 122t98.5 318q0 224 -97.5 337.5t-269.5 113.5q-171 0 -270.5 -114.5t-99.5 -340.5z" />
<glyph unicode="&#xf6;" horiz-adv-x="1212" d="M111 524q0 255 129 407t366 152q240 0 368 -149t128 -397q0 -118 -31.5 -219t-91.5 -178t-156 -121t-217 -44q-233 0 -364 152t-131 397zM236 518q0 -194 97.5 -315t272.5 -121q170 0 268.5 122t98.5 318q0 224 -97.5 337.5t-269.5 113.5q-171 0 -270.5 -114.5 t-99.5 -340.5zM313 1395q0 38 25 63t61 25q38 0 63 -25t25 -63q0 -37 -25 -61.5t-63 -24.5q-36 0 -61 25t-25 61zM721 1395q0 38 24.5 63t61.5 25t62.5 -25t25.5 -63q0 -37 -25.5 -61.5t-62.5 -24.5t-61.5 24.5t-24.5 61.5z" />
<glyph unicode="&#xf7;" horiz-adv-x="1331" d="M150 627v114q212 -4 514 -4l516 4v-114q-220 4 -516 4zM557 248q0 43 28.5 71.5t71.5 28.5t73 -29t30 -71q0 -43 -30 -73t-73 -30q-42 0 -71 30t-29 73zM557 1120q0 43 28.5 72t71.5 29t73 -29t30 -72q0 -42 -30 -71t-73 -29t-71.5 28.5t-28.5 71.5z" />
<glyph unicode="&#xf8;" horiz-adv-x="1212" d="M111 524q0 255 129 407t366 152q87 0 170 -26q55 156 55 176h138q-37 -88 -90 -221q109 -67 166 -190t57 -285q0 -118 -31.5 -219t-91.5 -178t-156 -121t-217 -44q-50 0 -123 15q-51 -145 -51 -168h-135q33 84 82 203q-129 61 -198.5 192.5t-69.5 306.5zM236 518 q0 -133 48 -234t138 -153q288 752 313 819q-64 23 -129 23q-171 0 -270.5 -114.5t-99.5 -340.5zM520 92q45 -10 86 -10q170 0 268.5 122t98.5 318q0 265 -142 375q-248 -632 -311 -805z" />
<glyph unicode="&#xf9;" horiz-adv-x="1179" d="M154 1059h141q-6 -274 -6 -531v-147q0 -153 59 -225t184 -72q62 0 118 25.5t92.5 60t67.5 80t45 74.5t24 55q2 33 2 149q0 115 -1.5 247.5t-3.5 208.5l-2 75h140q-6 -317 -6 -574q0 -169 5 -290.5t10 -158.5l5 -36h-102q-27 102 -27 274q-17 -41 -39 -79.5t-57.5 -79.5 t-77 -71t-98 -49.5t-119.5 -19.5q-171 0 -258.5 92t-87.5 291v170q0 115 -2 247.5t-4 208.5zM299 1448h145q0 -12 50 -83t100 -135l49 -65h-123q0 14 -55 84.5t-111 134.5z" />
<glyph unicode="&#xfa;" horiz-adv-x="1179" d="M154 1059h141q-6 -274 -6 -531v-147q0 -153 59 -225t184 -72q62 0 118 25.5t92.5 60t67.5 80t45 74.5t24 55q2 33 2 149q0 115 -1.5 247.5t-3.5 208.5l-2 75h140q-6 -317 -6 -574q0 -169 5 -290.5t10 -158.5l5 -36h-102q-27 102 -27 274q-17 -41 -39 -79.5t-57.5 -79.5 t-77 -71t-98 -49.5t-119.5 -19.5q-171 0 -258.5 92t-87.5 291v170q0 115 -2 247.5t-4 208.5zM512 1165q199 256 199 283h147q-221 -252 -221 -283h-125z" />
<glyph unicode="&#xfb;" horiz-adv-x="1179" d="M154 1059h141q-6 -274 -6 -531v-147q0 -153 59 -225t184 -72q62 0 118 25.5t92.5 60t67.5 80t45 74.5t24 55q2 33 2 149q0 115 -1.5 247.5t-3.5 208.5l-2 75h140q-6 -317 -6 -574q0 -169 5 -290.5t10 -158.5l5 -36h-102q-27 102 -27 274q-17 -41 -39 -79.5t-57.5 -79.5 t-77 -71t-98 -49.5t-119.5 -19.5q-171 0 -258.5 92t-87.5 291v170q0 115 -2 247.5t-4 208.5zM340 1165q172 234 172 271h150q0 -16 43 -84t86 -128l43 -59h-129q0 37 -121 205q-2 -3 -23.5 -35t-40 -61t-35 -61.5t-16.5 -47.5h-129z" />
<glyph unicode="&#xfc;" horiz-adv-x="1179" d="M154 1059h141q-6 -274 -6 -531v-147q0 -153 59 -225t184 -72q62 0 118 25.5t92.5 60t67.5 80t45 74.5t24 55q2 33 2 149q0 115 -1.5 247.5t-3.5 208.5l-2 75h140q-6 -317 -6 -574q0 -169 5 -290.5t10 -158.5l5 -36h-102q-27 102 -27 274q-17 -41 -39 -79.5t-57.5 -79.5 t-77 -71t-98 -49.5t-119.5 -19.5q-171 0 -258.5 92t-87.5 291v170q0 115 -2 247.5t-4 208.5zM291 1395q0 38 25.5 63t62.5 25t61.5 -25t24.5 -63q0 -37 -24.5 -61.5t-61.5 -24.5t-62.5 24.5t-25.5 61.5zM698 1395q0 38 24.5 63t61.5 25q38 0 63 -25t25 -63q0 -37 -25 -61.5 t-63 -24.5q-37 0 -61.5 24.5t-24.5 61.5z" />
<glyph unicode="&#xfd;" horiz-adv-x="1085" d="M74 1059h149q0 -2 18.5 -56.5t61 -181t82.5 -246.5q60 -183 166 -471l151 457q42 134 78.5 256.5t52 180.5t15.5 61h145q-276 -789 -372 -1071q-67 -200 -129 -265t-183 -65q-22 0 -43 1.5t-31 2.5l-10 2v88h72q73 0 114 40.5t87 154.5q-28 84 -134 362t-198 514z M469 1165q199 256 199 283h145q-221 -252 -221 -283h-123z" />
<glyph unicode="&#xfe;" horiz-adv-x="1236" d="M162 -342q8 408 8 917q0 214 -2 433.5t-4 332.5l-2 113h135q-4 -271 -6 -618q42 112 137.5 179.5t249.5 67.5q92 0 173 -36t142.5 -103t97 -170t35.5 -229q0 -267 -125 -418.5t-323 -151.5q-151 0 -247.5 69.5t-139.5 182.5l6 -569h-135zM291 555q0 -221 93.5 -347 t266.5 -126q165 0 257.5 125t92.5 334q0 200 -92 315t-252 115q-165 0 -265.5 -114t-100.5 -302z" />
<glyph unicode="&#xff;" horiz-adv-x="1085" d="M74 1059h149q0 -2 18.5 -56.5t61 -181t82.5 -246.5q60 -183 166 -471l151 457q42 134 78.5 256.5t52 180.5t15.5 61h145q-276 -789 -372 -1071q-67 -200 -129 -265t-183 -65q-22 0 -43 1.5t-31 2.5l-10 2v88h72q73 0 114 40.5t87 154.5q-28 84 -134 362t-198 514z M244 1395q0 38 24.5 63t61.5 25q38 0 63 -25t25 -63q0 -37 -25 -61.5t-63 -24.5q-37 0 -61.5 24.5t-24.5 61.5zM651 1395q0 38 24.5 63t61.5 25t62.5 -25t25.5 -63q0 -37 -25.5 -61.5t-62.5 -24.5t-61.5 24.5t-24.5 61.5z" />
<glyph unicode="&#x152;" horiz-adv-x="2220" d="M119 680q0 213 80.5 380.5t226.5 261t332 93.5q172 0 311 -79.5t217 -223.5l-2 279q1 0 17.5 -0.5t50 -1.5t80.5 -1.5t124 -1t166 -0.5l353 5v-117q-115 6 -353 6q-172 0 -307 -6q-6 -294 -6 -572q43 -2 289 -2q106 0 194 1t123 3l35 1v-109q-114 4 -352 4t-289 -2 q0 -219 6 -483q66 -4 307 -4q106 0 194 1.5t124 3.5l35 1v-117q-115 4 -353 4l-438 -4q0 116 2 270q-75 -139 -209.5 -217t-308.5 -78q-197 0 -345.5 91.5t-226 251t-77.5 362.5zM242 684q0 -279 150.5 -438.5t383.5 -159.5q158 0 276 81t177 214t59 297q0 191 -69.5 333 t-188 214.5t-268.5 72.5q-156 0 -275.5 -80t-182 -219t-62.5 -315z" />
<glyph unicode="&#x153;" horiz-adv-x="1990" d="M111 524q0 255 129 407t366 152q160 0 269 -71t163 -203q57 130 169 202t255 72q205 0 313.5 -122t108.5 -326q0 -29 -2 -53.5t-4 -34.5l-2 -10h-774q0 -221 105.5 -338t308.5 -117q46 0 90 7.5t75 18.5t60.5 26t45.5 26t33 23.5t19 13.5v-123q-1 -1 -16 -10.5 t-27.5 -16.5t-36 -18.5t-50 -20t-59.5 -16.5t-74.5 -12.5t-86.5 -4.5q-171 0 -286 73t-169 208q-54 -133 -162.5 -207t-265.5 -74q-233 0 -364 152t-131 397zM236 518q0 -194 97.5 -315t272.5 -121q170 0 268.5 122t98.5 318q0 226 -98 338.5t-269 112.5t-270.5 -114.5 t-99.5 -340.5zM1108 623h653v34q0 143 -79.5 230.5t-225.5 87.5q-137 0 -232.5 -93.5t-115.5 -258.5z" />
<glyph unicode="&#x178;" horiz-adv-x="1228" d="M66 1391h155q88 -178 187 -373t154 -300l56 -106q195 381 388 779h149q-121 -217 -234.5 -429.5t-175 -330.5t-67.5 -129q0 -12 -1 -69t-1 -103l6 -330h-131q8 168 8 330q0 43 -1 102t-1 70q-5 8 -70 130t-181.5 333t-239.5 426zM330 1636q0 38 25.5 63t62.5 25t61.5 -25 t24.5 -63q0 -37 -24.5 -61.5t-61.5 -24.5t-62.5 24.5t-25.5 61.5zM737 1636q0 38 24.5 63t61.5 25q38 0 63 -25t25 -63q0 -37 -25 -61.5t-63 -24.5q-37 0 -61.5 24.5t-24.5 61.5z" />
<glyph unicode="&#x2c6;" horiz-adv-x="503" d="M4 1165q172 234 172 271h150q0 -16 43 -84t86 -128l43 -59h-129q0 15 -17 47.5t-36 61t-41.5 61t-24.5 35.5q-117 -168 -117 -205h-129z" />
<glyph unicode="&#x2dc;" horiz-adv-x="651" d="M-57 1229q0 92 58 152.5t157 60.5q53 0 101.5 -16t79 -35.5t70 -35.5t76.5 -16q52 0 79.5 29.5t27.5 85.5h117q0 -86 -54 -146.5t-151 -60.5q-67 0 -126 24t-109.5 48t-96.5 24q-55 0 -84 -30t-29 -84h-116z" />
<glyph unicode="&#x2000;" horiz-adv-x="887" />
<glyph unicode="&#x2001;" horiz-adv-x="1774" />
<glyph unicode="&#x2002;" horiz-adv-x="887" />
<glyph unicode="&#x2003;" horiz-adv-x="1774" />
<glyph unicode="&#x2004;" horiz-adv-x="591" />
<glyph unicode="&#x2005;" horiz-adv-x="443" />
<glyph unicode="&#x2006;" horiz-adv-x="295" />
<glyph unicode="&#x2007;" horiz-adv-x="295" />
<glyph unicode="&#x2008;" horiz-adv-x="221" />
<glyph unicode="&#x2009;" horiz-adv-x="354" />
<glyph unicode="&#x200a;" horiz-adv-x="98" />
<glyph unicode="&#x2010;" horiz-adv-x="935" d="M154 606v119q133 -4 313 -4l313 4v-119q-137 6 -313 6q-80 0 -158 -1.5t-117 -2.5z" />
<glyph unicode="&#x2011;" horiz-adv-x="935" d="M154 606v119q133 -4 313 -4l313 4v-119q-137 6 -313 6q-80 0 -158 -1.5t-117 -2.5z" />
<glyph unicode="&#x2012;" horiz-adv-x="935" d="M154 606v119q133 -4 313 -4l313 4v-119q-137 6 -313 6q-80 0 -158 -1.5t-117 -2.5z" />
<glyph unicode="&#x2013;" horiz-adv-x="1333" d="M154 606v113q210 -4 512 -4l512 4v-113q-216 4 -512 4z" />
<glyph unicode="&#x2014;" horiz-adv-x="1816" d="M154 606v113q346 -4 751 -4l756 4v-113q-347 4 -756 4z" />
<glyph unicode="&#x2018;" horiz-adv-x="473" d="M143 829q7 129 9 240q2 102 28 162.5t76.5 95t146.5 64.5l29 -97q-93 -38 -128.5 -84.5t-35.5 -140.5q0 -48 2 -108t4 -96l2 -36h-133z" />
<glyph unicode="&#x2019;" horiz-adv-x="473" d="M102 928q94 38 129 83.5t35 139.5q0 48 -2 108t-4 96l-2 36h133q-6 -129 -8 -240q-2 -77 -15 -127.5t-45 -87.5t-76 -60.5t-116 -46.5z" />
<glyph unicode="&#x201a;" horiz-adv-x="477" d="M84 -150q67 0 104 33t43 92q-42 1 -69 30.5t-27 70.5q0 43 29 72.5t72 29.5q44 0 75 -32.5t31 -84.5q0 -139 -67.5 -215.5t-190.5 -76.5v81z" />
<glyph unicode="&#x201c;" horiz-adv-x="792" d="M143 829q7 129 9 240q2 102 28 162.5t76.5 95t146.5 64.5l29 -97q-93 -38 -128.5 -84.5t-35.5 -140.5q0 -48 2 -108t4 -96l2 -36h-133zM463 829q6 129 8 240q3 148 56.5 213t193.5 109l31 -97q-94 -38 -129 -84t-35 -141l6 -240h-131z" />
<glyph unicode="&#x201d;" horiz-adv-x="792" d="M41 928q94 38 129 83.5t35 139.5q0 48 -2 108t-4 96l-2 36h133q-6 -129 -8 -240q-2 -77 -15 -127.5t-45 -87.5t-76 -60.5t-116 -46.5zM360 928q94 38 129 83.5t35 139.5q0 48 -2 108t-4 96l-2 36h133q-6 -129 -8 -240q-2 -77 -15 -127.5t-45 -87.5t-76 -60.5t-116 -46.5z " />
<glyph unicode="&#x201e;" horiz-adv-x="825" d="M84 -152q67 0 104 33.5t43 91.5q-42 3 -69 32t-27 71q0 43 29 71.5t72 28.5q44 0 75 -31.5t31 -83.5q0 -141 -67.5 -217.5t-190.5 -76.5v81zM432 -152q67 0 105.5 34t44.5 91q-43 3 -71 32.5t-28 70.5q0 43 29 71.5t72 28.5q45 0 76.5 -31.5t31.5 -83.5 q0 -141 -67.5 -217.5t-192.5 -76.5v81z" />
<glyph unicode="&#x2022;" horiz-adv-x="737" d="M193 692q0 73 51 124.5t123 51.5q74 0 126 -51.5t52 -124.5q0 -71 -52.5 -122.5t-125.5 -51.5q-72 0 -123 51.5t-51 122.5z" />
<glyph unicode="&#x2026;" horiz-adv-x="1675" d="M135 76q0 43 29 72.5t72 29.5t71.5 -29.5t28.5 -72.5t-28.5 -72t-71.5 -29t-72 29t-29 72zM737 76q0 43 29 72.5t72 29.5t72.5 -29.5t29.5 -72.5t-29.5 -72t-72.5 -29t-72 29t-29 72zM1339 76q0 43 29 72.5t72 29.5t71.5 -29.5t28.5 -72.5t-28.5 -72t-71.5 -29t-72 29 t-29 72z" />
<glyph unicode="&#x202f;" horiz-adv-x="354" />
<glyph unicode="&#x2039;" horiz-adv-x="749" d="M143 446v156q80 23 139 47t114 59.5t88 84.5t42 110h121q-6 -75 -44 -139t-97.5 -108.5t-123 -75t-132.5 -48.5v-16q69 -18 132.5 -48.5t123 -75t97.5 -108.5t44 -139h-121q-9 61 -42 110t-88 84.5t-114 59.5t-139 47z" />
<glyph unicode="&#x203a;" horiz-adv-x="749" d="M102 145q6 75 44.5 139t98 108.5t123 75t132.5 48.5v16q-69 18 -132.5 48.5t-123 75t-98 108.5t-44.5 139h121q9 -61 42 -110t88 -84.5t114 -59.5t139 -47v-156q-80 -23 -139 -47t-114 -59.5t-88 -84.5t-42 -110h-121z" />
<glyph unicode="&#x205f;" horiz-adv-x="443" />
<glyph unicode="&#x20ac;" horiz-adv-x="1552" d="M96 467v92q58 -2 230 -2q-9 97 -9 137q0 54 2 64l-188 -2v94q49 -2 199 -4q41 260 219 413.5t461 153.5q74 0 201.5 -14.5t197.5 -14.5v-114q-74 0 -198.5 14t-190.5 14q-231 0 -376.5 -117.5t-182.5 -334.5l571 4v-94q-279 4 -581 4q-5 -31 -5 -74q0 -41 9 -129l542 2 v-92q-257 2 -526 2q47 -190 183.5 -288.5t349.5 -98.5q72 0 140 11t114 27t81.5 32t52.5 27l17 11v-120q-5 -4 -16 -10.5t-49.5 -23t-83.5 -29.5t-119.5 -23.5t-155.5 -10.5q-270 0 -432 130.5t-213 365.5z" />
<glyph unicode="&#x2122;" horiz-adv-x="1794" d="M133 1282v109q143 -5 305 -5l299 5v-109q-126 6 -241 6v-13t-0.5 -31t-1 -48t-0.5 -72.5v-95.5l6 -412h-123q6 195 6 412q0 81 -0.5 142t-0.5 90l-1 28zM858 616q6 175 6 392q0 97 -1.5 193t-2.5 143l-2 47h166q0 -15 53 -172.5t107 -308.5l53 -150q219 598 219 631h162 q-4 -164 -4 -383l4 -392h-123q8 175 8 392v239l-229 -631h-82l-217 631v-239l6 -392h-123z" />
<glyph unicode="&#x25fc;" horiz-adv-x="1054" d="M0 0v1055h1055v-1055h-1055z" />
<glyph unicode="&#xfb01;" horiz-adv-x="1202" d="M59 946v113q86 -2 197 -4v196q0 146 79 225.5t212 79.5q42 0 100.5 -7t93.5 -7v-115q-35 0 -85.5 9.5t-86.5 9.5q-194 0 -194 -195v-196l667 4q-8 -287 -8 -529q0 -115 2 -247.5t4 -207.5l2 -75h-133q9 271 9 530q0 196 -5 416q-199 4 -538 4v-205q0 -179 2 -365.5 t4 -283.5l2 -96h-135q8 343 8 745v203zM877 1444q0 43 28.5 71.5t71.5 28.5t72.5 -28.5t29.5 -71.5t-29.5 -73t-72.5 -30q-42 0 -71 30t-29 73z" />
<glyph unicode="&#xfb02;" horiz-adv-x="1282" d="M59 946v113q86 -4 197 -4v196q0 146 79 225.5t212 79.5q41 0 147 -7t207 -7h150q-7 -440 -7 -797v-540q0 -55 29 -86t80 -31q28 0 52.5 7t34.5 13l11 7v-103q-37 -24 -121 -24q-94 0 -151 55t-57 156v38.5t0.5 92t1 123t0.5 146v146.5q0 304 -6 685q-98 0 -206 8t-143 8 q-194 0 -194 -195v-196l340 4v-113q-164 2 -340 4v-205q0 -179 2 -365.5t4 -283.5l2 -96h-135q8 343 8 745v203z" />
<glyph unicode="&#xfb03;" horiz-adv-x="1892" d="M59 946v113q86 -4 197 -4v196q0 146 79 225.5t212 79.5q39 0 109 -7t122 -7v-115q-57 0 -117 9.5t-92 9.5q-194 0 -194 -195v-196h536v196q0 146 79 225.5t212 79.5q45 0 152 -7t258 -7h121v-115h-148q-119 0 -221.5 9.5t-151.5 9.5q-87 0 -134.5 -49.5t-47.5 -145.5 v-196l340 4v-113q-164 2 -340 4v-205q0 -179 2 -365.5t4 -283.5l2 -96h-135q8 343 8 745v203h-536v-203q0 -179 2 -365.5t4 -283.5l2 -96h-135q8 343 8 745v203zM1602 0q6 271 6 530l-6 529h131q-7 -287 -7 -529q0 -115 2 -247.5t4 -207.5l1 -75h-131z" />
<glyph unicode="&#xfb04;" horiz-adv-x="1964" d="M59 946v113q86 -4 197 -4v196q0 146 79 225.5t212 79.5q39 0 109 -7t122 -7v-115q-57 0 -117 9.5t-92 9.5q-194 0 -194 -195v-196h536v196q0 146 79 225.5t212 79.5q39 0 109.5 -7t122.5 -7v-115q-57 0 -117 9.5t-92 9.5q-96 0 -145.5 -49.5t-49.5 -145.5v-196l340 4 v-113q-164 2 -340 4v-205q0 -179 2 -365.5t4 -283.5l2 -96h-135q8 343 8 745v203h-536v-203q0 -179 2 -365.5t4 -283.5l2 -96h-135q8 343 8 745v203zM1597 1556h136q-7 -454 -7 -811v-540q0 -55 29 -86t80 -31q28 0 52.5 7t34.5 13l11 7v-103q-39 -24 -121 -24 q-94 0 -151 55t-57 156v38.5t0.5 92t1 123t0.5 146v146.5q0 154 -2 356.5t-4 328.5z" />
</font>
</defs>
</svg>
