<?xml version="1.0" standalone="no"?>
<!DOCTYPE svg PUBLIC "-//W3C//DTD SVG 1.1//EN" "http://www.w3.org/Graphics/SVG/1.1/DTD/svg11.dtd" >
<svg xmlns="http://www.w3.org/2000/svg">
<metadata>
This is a custom SVG font generated by IcoMoon.
<iconset grid="16"></iconset>
</metadata>
<defs>
<font id="icomoon" horiz-adv-x="512" >
<font-face units-per-em="512" ascent="480" descent="-32" />
<missing-glyph horiz-adv-x="512" />
<glyph unicode="&#xe000;" d="M 356.352,211.488L 356.352,211.488l-18.88,0.00 c-6.912,0.00-12.48,5.568-12.48,12.512s 5.568,12.576, 12.48,12.576l 18.88,0.00 
			c 6.912,0.00, 12.544,5.632, 12.544,12.512c0.00,6.944-5.632,12.576-12.544,12.576c-6.976,0.00-12.576,5.632-12.576,12.576
			c0.00,6.88, 5.60,12.512, 12.576,12.512c 0.832,0.00, 1.696-0.064, 2.528-0.256c 19.552-1.312, 35.072-17.44, 35.072-37.376
			C 393.952,228.32, 377.12,211.488, 356.352,211.488z M 293.60,236.576L 281.088,236.576 L 237.184,236.576 L 155.68,236.576 C 148.736,236.576, 143.136,230.944, 143.136,224.00
			s 5.632-12.512, 12.576-12.512l 12.512,0.00 L 193.28,211.488 l 18.816,0.00 l 25.088,0.00 L 256.00,211.488 l 25.088,0.00 l 12.512,0.00 c 20.80,0.00, 37.664-16.864, 37.664-37.632c0.00-19.936-15.52-36.064-35.136-37.376
			c-0.768-0.192-1.632-0.256-2.528-0.256c-6.944,0.00-12.512,5.632-12.512,12.512c0.00,6.944, 5.568,12.576, 12.512,12.576
			c 6.976,0.00, 12.544,5.632, 12.544,12.576c0.00,6.88-5.568,12.512-12.544,12.512L 281.088,186.40 L 256.00,186.40 L 237.184,186.40 L 212.096,186.40 L 193.28,186.40 L 168.192,186.40 L 155.68,186.40 
			c-20.80,0.00-37.632,16.864-37.632,37.632c0.00,19.936, 15.52,36.064, 35.104,37.376c 0.768,0.192, 1.664,0.256, 2.528,0.256l0.00,0.00l 81.504,0.00 l 43.904,0.00 l 12.512,0.00 
			c 6.976,0.00, 12.544,5.632, 12.544,12.576c0.00,6.88-5.568,12.512-12.544,12.512c-6.944,0.00-12.512,5.632-12.512,12.64
			c0.00,6.88, 5.568,12.448, 12.512,12.448c 0.896,0.00, 1.76-0.064, 2.528-0.192c 19.584-1.376, 35.136-17.44, 35.136-37.376
			C 331.264,253.376, 314.40,236.576, 293.60,236.576z"  />
<glyph unicode="&#xe001;" d="M 392.416,127.168l0.00-0.32 l-4.672,0.00 l-18.88,0.00 c-6.944,0.00-12.512,5.632-12.512,12.576s 5.568,12.512, 12.512,12.512l 18.88,0.00 
			c 6.88,0.00, 12.512,5.632, 12.512,12.512c0.00,7.008-5.632,12.64-12.512,12.64c-7.008,0.00-12.576,5.632-12.576,12.512
			c0.00,6.944, 5.568,12.576, 12.576,12.576c 0.80,0.00, 1.696-0.064, 2.496-0.256c 19.552-1.376, 35.072-17.504, 35.072-37.44
			C 425.28,145.28, 410.912,129.536, 392.416,127.168z M 358.144,252.224l 0.064,0.00 c 1.312-3.744, 2.368-7.616, 3.136-11.616
			c-8.736,6.176-19.136,10.304-30.432,11.36c-0.064,0.064-0.128,0.192-0.192,0.256l0.00,0.00c-8.64,15.008-24.80,25.12-43.36,25.12
			c-10.048,0.00-19.328-3.072-27.20-8.128c-7.744,33.376-37.44,58.24-73.12,58.24c-41.568,0.00-75.264-33.696-75.264-75.264l0.00,0.00
			c0.00-41.504, 33.696-75.20, 75.264-75.20c 16.32,0.00, 51.136,0.00, 76.512,0.00l 61.44,0.00 c 6.944,0.00, 12.512,5.632, 12.512,12.512c0.00,6.944-5.568,12.576-12.512,12.576
			S 312.48,207.712, 312.48,214.656s 5.568,12.512, 12.512,12.512c 0.864,0.00, 1.76-0.064, 2.496-0.256c 19.616-1.312, 35.136-17.44, 35.136-37.376
			c0.00-19.20-14.368-34.944-32.928-37.248l0.00-0.384 l-4.672,0.00 L 274.912,151.904 c-25.12,0.00-71.20,0.00-87.872,0.00c-6.944,0.00-12.576-5.568-12.576-12.512
			s 5.632-12.576, 12.576-12.576l 137.952,0.00 l 4.672,0.00 l0.00-0.32 c 18.56-2.304, 32.928-18.176, 32.928-37.312c0.00-19.936-15.488-36.064-35.136-37.376
			c-0.736-0.128-1.632-0.256-2.496-0.256c-6.944,0.00-12.512,5.632-12.512,12.576c0.00,6.88, 5.568,12.576, 12.512,12.576
			s 12.512,5.568, 12.512,12.512s-5.568,12.576-12.512,12.576L 187.04,101.792 L 182.272,101.792 l0.00,0.32 c-18.496,2.304-32.864,18.112-32.864,37.312
			c0.00,6.624, 1.824,12.736, 4.864,18.112C 114.976,171.104, 86.72,208.352, 86.72,252.224c0.00,55.424, 44.864,100.384, 100.32,100.384
			c 12.512,0.00, 24.512-2.368, 35.616-6.624c 10.24,29.44, 38.112,50.432, 70.944,50.432c 4.736,0.00, 9.376-0.448, 13.888-1.248
			c-0.80-3.616-1.312-7.36-1.312-11.20c0.00-27.744, 22.432-50.24, 50.176-50.24c 3.872,0.00, 7.552,0.512, 11.20,1.312
			c 0.864-4.512, 1.312-9.056, 1.312-13.824c0.00-19.616-7.616-37.504-19.872-50.88C 352.832,264.832, 355.84,258.72, 358.144,252.224z M 282.40,370.08
			c-18.176-4.192-32.448-18.24-37.12-36.192l0.00,0.00c 12.00-8.64, 22.048-19.808, 29.312-32.736C 278.784,301.856, 283.04,302.40, 287.328,302.40
			c 16.384,0.00, 31.552-5.312, 43.936-14.24c 5.44,6.176, 9.312,13.632, 11.20,21.824C 312.032,315.712, 288.096,339.648, 282.40,370.08z"  />
<glyph unicode="&#xe002;" d="M 393.984,211.424l-25.056,0.00 c-6.976,0.00-12.576,5.632-12.576,12.576s 5.60,12.576, 12.576,12.576l 25.056,0.00 
			c 6.912,0.00, 12.544-5.632, 12.544-12.576S 400.864,211.424, 393.984,211.424z M 344.704,294.944c-4.896-4.928-12.864-4.928-17.76,0.00
			c-4.896,4.864-4.896,12.80,0.00,17.76l 17.76,17.76c 4.864,4.864, 12.80,4.864, 17.728,0.00c 4.864-4.928, 4.864-12.864,0.00-17.76L 344.704,294.944z
			 M 256.032,148.672c-41.568,0.00-75.296,33.76-75.296,75.328s 33.728,75.264, 75.296,75.264S 331.264,265.568, 331.264,224.00S 297.60,148.672, 256.032,148.672z
			 M 256.032,274.176C 228.352,274.176, 205.856,251.68, 205.856,224.00s 22.496-50.176, 50.176-50.176S 306.144,196.32, 306.144,224.00S 283.712,274.176, 256.032,274.176z
			 M 256.032,324.32c-6.976,0.00-12.576,5.632-12.576,12.576L 243.456,361.952 c0.00,6.88, 5.60,12.576, 12.576,12.576c 6.944,0.00, 12.544-5.696, 12.544-12.576l0.00-25.056 
			C 268.576,329.952, 262.944,324.32, 256.032,324.32z M 167.328,294.944L 149.60,312.672c-4.864,4.864-4.864,12.80,0.00,17.76c 4.928,4.864, 12.864,4.864, 17.76,0.00
			l 17.76-17.76c 4.864-4.928, 4.864-12.864,0.00-17.76C 180.224,289.984, 172.256,289.984, 167.328,294.944z M 155.68,224.00c0.00-6.944-5.664-12.576-12.544-12.576
			L 118.016,211.424 C 111.168,211.424, 105.504,217.056, 105.504,224.00s 5.664,12.576, 12.544,12.576l 25.12,0.00 C 150.048,236.576, 155.68,230.944, 155.68,224.00z M 167.328,153.056
			c 4.896,4.864, 12.864,4.864, 17.76,0.00s 4.864-12.80,0.00-17.76l-17.76-17.76c-4.864-4.864-12.80-4.864-17.76,0.00
			c-4.864,4.928-4.864,12.864,0.00,17.76L 167.328,153.056z M 256.032,123.68c 6.944,0.00, 12.544-5.632, 12.544-12.576l0.00-25.12 
			c0.00-6.88-5.60-12.512-12.544-12.512c-6.976,0.00-12.576,5.632-12.576,12.512l0.00,25.12 C 243.456,118.048, 249.056,123.68, 256.032,123.68z
			 M 344.704,153.056l 17.728-17.76c 4.864-4.864, 4.864-12.80,0.00-17.76c-4.896-4.864-12.832-4.864-17.728,0.00l-17.76,17.76
			c-4.896,4.928-4.896,12.864,0.00,17.76C 331.84,157.952, 339.808,157.952, 344.704,153.056z"  />
<glyph unicode="&#xe003;" d="M 343.776,153.152L 343.776,180.608 c 14.944,8.736, 25.056,24.864, 25.056,43.424c0.00,27.68-22.432,50.176-50.112,50.176
			c-10.048,0.00-19.36-3.072-27.20-8.128c-7.744,33.312-37.44,58.24-73.12,58.24c-41.568,0.00-75.264-33.696-75.264-75.264
			c0.00-22.24, 9.696-42.176, 24.992-56.00l0.00-30.816 C 138.272,179.648, 118.016,211.968, 118.016,249.088c0.00,55.424, 44.928,100.32, 100.384,100.32
			c 37.632,0.00, 70.368-20.736, 87.552-51.424C 310.08,298.656, 314.336,299.296, 318.72,299.296c 41.568,0.00, 75.264-33.696, 75.264-75.264
			C 393.984,191.296, 372.96,163.456, 343.776,153.152z M 205.856,198.912c 6.944,0.00, 12.576-5.632, 12.576-12.512c0.00-6.944-5.632-12.576-12.576-12.576
			S 193.28,179.456, 193.28,186.40C 193.28,193.28, 198.912,198.912, 205.856,198.912z M 205.856,148.768c 6.944,0.00, 12.576-5.632, 12.576-12.576
			s-5.632-12.512-12.576-12.512S 193.28,129.28, 193.28,136.224S 198.912,148.768, 205.856,148.768z M 255.968,173.856c 6.944,0.00, 12.576-5.632, 12.576-12.576
			c0.00-6.88-5.632-12.512-12.576-12.512c-6.88,0.00-12.512,5.632-12.512,12.512C 243.456,168.224, 249.088,173.856, 255.968,173.856z M 255.968,123.712
			c 6.944,0.00, 12.576-5.632, 12.576-12.576s-5.632-12.576-12.576-12.576c-6.88,0.00-12.512,5.632-12.512,12.576S 249.088,123.712, 255.968,123.712z
			 M 306.144,198.912c 6.944,0.00, 12.576-5.632, 12.576-12.512c0.00-6.944-5.632-12.576-12.576-12.576S 293.60,179.456, 293.60,186.40
			C 293.60,193.28, 299.232,198.912, 306.144,198.912z M 306.144,148.768c 6.944,0.00, 12.576-5.632, 12.576-12.576s-5.632-12.512-12.576-12.512
			s-12.576,5.568-12.576,12.512S 299.232,148.768, 306.144,148.768z"  />
<glyph unicode="&#xe004;" d="M 377.184,238.944L 377.184,238.944c 8.576-12.192, 13.664-27.072, 13.664-43.20c0.00-32.736-20.928-60.512-50.144-70.88
			l0.00,27.488 c 14.944,8.672, 25.024,24.864, 25.024,43.36c0.00,27.744-22.40,50.24-50.112,50.24c-10.048,0.00-19.328-3.072-27.20-8.128
			c-7.744,33.312-37.44,58.24-73.12,58.24c-41.568,0.00-75.264-33.696-75.264-75.264c0.00-22.24, 9.728-42.24, 25.024-56.00l0.00-30.816 
			c-29.888,17.376-50.112,49.696-50.112,86.816c0.00,55.36, 44.896,100.32, 100.352,100.32c 12.512,0.00, 24.512-2.368, 35.584-6.56l0.00,0.00
			c 10.24,29.376, 38.112,50.432, 70.976,50.432c 4.736,0.00, 9.344-0.448, 13.856-1.312c-0.80-3.552-1.312-7.36-1.312-11.20
			c0.00-27.744, 22.464-50.176, 50.208-50.176c 3.84,0.00, 7.552,0.512, 11.20,1.312c 0.832-4.512, 1.28-9.12, 1.28-13.824
			C 397.056,270.176, 389.472,252.384, 377.184,238.944z M 310.624,338.688c-18.144-4.128-32.416-18.24-37.12-36.192l0.00,0.00
			c 12.00-8.64, 22.048-19.808, 29.344-32.736c 4.16,0.672, 8.416,1.312, 12.736,1.312c 16.384,0.00, 31.552-5.376, 43.904-14.24l0.00,0.00
			c 5.44,6.112, 9.312,13.568, 11.232,21.824C 340.288,284.32, 316.32,308.256, 310.624,338.688z M 209.472,158.176c 3.424,5.952, 11.104,8.00, 17.12,4.576
			l 13.76-8.00L 240.352,170.688 c0.00,6.944, 5.632,12.576, 12.544,12.576s 12.544-5.632, 12.544-12.576l0.00-15.936 l 13.792,8.00c 6.016,3.424, 13.664,1.376, 17.088-4.576
			c 3.488-6.048, 1.44-13.696-4.544-17.184l-13.76-7.936l 13.76-7.936c 5.984-3.424, 8.064-11.136, 4.576-17.12
			c-3.456-6.016-11.136-8.064-17.12-4.576L 265.408,111.36l0.00-15.936 c0.00-6.88-5.632-12.512-12.544-12.512c-6.88,0.00-12.544,5.632-12.544,12.512
			L 240.32,111.36 l-13.76-7.936c-6.016-3.488-13.696-1.44-17.12,4.576c-3.488,6.016-1.44,13.696, 4.576,17.12l 13.76,7.936l-13.76,7.936
			C 208.032,144.512, 205.984,152.128, 209.472,158.176z M 252.864,120.512c 6.944,0.00, 12.544,5.632, 12.544,12.576s-5.632,12.576-12.544,12.576
			c-6.88,0.00-12.544-5.632-12.544-12.576C 240.352,126.176, 245.984,120.512, 252.864,120.512z"  />
<glyph unicode="&#xe005;" d="M 252.864,189.504c-6.912,0.00-12.544-5.632-12.544-12.512l0.00-100.384 c0.00-6.944, 5.632-12.512, 12.544-12.512
					c 6.944,0.00, 12.576,5.568, 12.576,12.512L 265.44,176.992 C 265.44,183.872, 259.776,189.504, 252.864,189.504z M 303.072,214.56c-6.976,0.00-12.576-5.568-12.576-12.448
					l0.00-100.384 c0.00-6.944, 5.632-12.576, 12.576-12.576c 6.912,0.00, 12.544,5.632, 12.544,12.576L 315.616,202.112 C 315.584,208.992, 309.984,214.56, 303.072,214.56z
					 M 202.72,214.56c-6.944,0.00-12.544-5.568-12.544-12.448l0.00-100.384 c0.00-6.944, 5.60-12.576, 12.544-12.576s 12.576,5.632, 12.576,12.576L 215.296,202.112 
					C 215.296,208.992, 209.664,214.56, 202.72,214.56z M 397.056,308.672c0.00,4.672-0.448,9.312-1.28,13.824c-3.616-0.80-7.328-1.312-11.20-1.312
					c-27.744,0.00-50.208,22.432-50.208,50.176c0.00,3.808, 0.512,7.616, 1.312,11.20c-4.512,0.864-9.088,1.312-13.856,1.312
					c-32.832,0.00-60.704-21.056-70.976-50.432C 239.776,337.632, 227.776,340.00, 215.296,340.00c-55.424,0.00-100.352-44.928-100.352-100.32
					c0.00-37.12, 20.256-69.44, 50.112-86.816L 165.056,183.68 C 149.76,197.504, 140.032,217.44, 140.032,239.68c0.00,41.568, 33.696,75.264, 75.264,75.264
					c 35.68,0.00, 65.408-24.928, 73.12-58.24c 7.84,5.056, 17.12,8.128, 27.20,8.128c 27.712,0.00, 50.112-22.496, 50.112-50.24
					c0.00-18.496-10.08-34.688-25.024-43.36l0.00-27.424 c 29.184,10.304, 50.144,38.048, 50.144,70.816c0.00,16.128-5.088,31.008-13.664,43.20
					C 389.472,271.20, 397.056,288.992, 397.056,308.672z M 359.488,275.616c-12.352,8.864-27.52,14.24-43.904,14.24c-4.352,0.00-8.608-0.64-12.736-1.312
					C 295.584,301.504, 285.504,312.672, 273.504,321.312c 4.704,17.952, 18.976,32.064, 37.12,36.192c 5.696-30.432, 29.664-54.368, 60.096-60.064
					C 368.80,289.184, 364.896,281.76, 359.488,275.616z"  />
<glyph unicode="&#xe006;" d="M 412.768,256.928l-25.12,0.00 c-6.944,0.00-12.512,5.632-12.512,12.576s 5.568,12.576, 12.512,12.576l 25.12,0.00 
			c 6.88,0.00, 12.512-5.632, 12.512-12.576S 419.648,256.928, 412.768,256.928z M 363.52,340.448c-4.928-4.864-12.864-4.864-17.76,0.00
			c-4.928,4.864-4.928,12.864,0.00,17.76l 17.76,17.76c 4.864,4.864, 12.736,4.864, 17.696,0.00c 4.864-4.928, 4.864-12.864,0.00-17.76L 363.52,340.448z
			 M 345.024,242.56L 345.024,242.56c 10.944-13.056, 17.568-29.888, 17.568-48.32c0.00-32.736-20.928-60.512-50.112-70.88l0.00,27.488 
			c 14.944,8.672, 25.056,24.80, 25.056,43.36c0.00,27.744-22.432,50.176-50.176,50.176c-10.048,0.00-19.328-3.072-27.20-8.128
			c-7.68,33.376-37.44,58.24-73.12,58.24c-41.568,0.00-75.264-33.696-75.264-75.264c0.00-22.24, 9.76-42.176, 25.056-55.936l0.00-30.816 
			C 106.976,149.952, 86.72,182.24, 86.72,219.328c0.00,55.424, 44.864,100.384, 100.32,100.384c 9.824,0.00, 19.36-1.44, 28.384-4.128
			c 13.76,17.76, 35.20,29.184, 59.424,29.184c 41.504,0.00, 75.20-33.696, 75.20-75.264C 350.016,260.00, 348.224,250.944, 345.024,242.56z M 274.848,319.68
			c-13.952,0.00-26.496-5.632-35.552-14.752c 14.688-8.992, 26.88-21.632, 35.328-36.672c 4.192,0.64, 8.448,1.248, 12.736,1.248
			c 13.312,0.00, 25.824-3.488, 36.672-9.568l0.00,0.00c 0.64,3.072, 0.928,6.304, 0.928,9.568C 324.96,297.184, 302.528,319.68, 274.848,319.68z M 274.848,369.888
			c-7.008,0.00-12.64,5.568-12.64,12.512L 262.208,407.424 c0.00,6.944, 5.632,12.576, 12.64,12.576c 6.88,0.00, 12.512-5.632, 12.512-12.576l0.00-25.056 
			C 287.328,375.424, 281.728,369.888, 274.848,369.888z M 186.144,340.448L 168.352,358.176c-4.80,4.864-4.80,12.80,0.00,17.76c 4.928,4.864, 12.928,4.864, 17.824,0.00
			l 17.76-17.76c 4.864-4.864, 4.864-12.864,0.00-17.76C 198.976,335.552, 191.04,335.552, 186.144,340.448z M 174.464,194.24c 6.944,0.00, 12.576-5.568, 12.576-12.512
			l0.00-100.384 c0.00-6.944-5.632-12.512-12.576-12.512s-12.512,5.568-12.512,12.512L 161.952,181.76 C 161.984,188.672, 167.52,194.24, 174.464,194.24z M 224.672,169.184
			c 6.88,0.00, 12.512-5.632, 12.512-12.576l0.00-100.32 c0.00-6.944-5.632-12.576-12.512-12.576c-6.944,0.00-12.576,5.632-12.576,12.576l0.00,100.32 
			C 212.096,163.552, 217.728,169.184, 224.672,169.184z M 274.848,194.24c 6.88,0.00, 12.512-5.568, 12.512-12.512l0.00-100.384 c0.00-6.944-5.632-12.512-12.512-12.512
			c-7.008,0.00-12.64,5.568-12.64,12.512L 262.208,181.76 C 262.208,188.672, 267.84,194.24, 274.848,194.24z"  />
<glyph unicode="&#xe007;" d="M 178.944,329.952L 333.056,329.952L 333.056,291.456L 178.944,291.456zM 448.64,252.896l-48.16,0.00 L 400.48,387.744 c0.00,5.312-4.288,9.632-9.632,9.632L 121.152,397.376 
			c-5.344,0.00-9.632-4.32-9.632-9.632l0.00-134.848 L 63.36,252.896 l0.00-173.376 l 48.16,0.00 l0.00-19.296 c0.00-5.312, 4.288-9.632, 9.632-9.632l 269.696,0.00 
			c 5.344,0.00, 9.632,4.32, 9.632,9.632l0.00,19.296 l 48.16,0.00 L 448.64,252.896 z M 130.784,378.112l 250.432,0.00 l0.00-125.216 l-48.16,0.00 L 178.944,252.896 L 130.784,252.896 L 130.784,378.112 z M 130.784,69.888l0.00,86.688 
			l 48.16,0.00 l0.00-38.496 l 154.112,0.00 l0.00,38.496 l 48.16,0.00 l0.00-86.688 L 130.784,69.888 z"  />
<glyph unicode="&#xe008;" d="M 434.784,271.04L 303.008,271.04L 303.008,402.784L 208.928,402.784L 208.928,271.04L 77.216,271.04L 77.216,176.96L 208.928,176.96L 208.928,45.216L 303.008,45.216L 303.008,176.96L 434.784,176.96 	z"  />
<glyph unicode="&#xe009;" d="M 189.568,352.928l0.00-54.656 l0.00-48.00 l0.00-81.472 C 184.48,170.272, 179.104,171.20, 173.632,171.20c-35.904,0.00-64.768-29.44-64.768-65.664
			c0.00-36.096, 28.864-65.504, 64.768-65.504c 35.648,0.00, 64.704,29.408, 64.704,65.504L 238.336,262.784 l 116.064,30.016l0.00-80.576 c-5.152,1.472-10.464,2.40-16.032,2.40
			c-35.808,0.00-64.896-29.44-64.896-65.664c0.00-36.096, 29.088-65.504, 64.896-65.504c 35.712,0.00, 64.768,29.408, 64.768,65.504L 403.136,305.312 L 403.136,341.76 L 403.136,407.968 L 189.568,352.928
			z"  />
<glyph unicode="&#xe00a;" d="M 77.216,271.04L 434.784,271.04L 434.784,176.992L 77.216,176.992z"  />
<glyph unicode="&#xe00b;" d="M 246.304,195.20L 246.304,195.04L 246.432,195.20 		zM 363.296,325.344L 296.832,325.344 c-5.664,0.00-11.328-0.448-16.80-1.152L 276.416,323.584c 20.448-10.88, 37.216-26.784, 48.224-45.92l 5.504,0.00 l 36.64,0.00 
			c 32.16,0.00, 58.048-24.032, 58.048-53.696c0.00-29.696-26.048-53.76-58.048-53.76l-41.856,0.00 L 316.384,170.208 L 307.968,170.208 L 294.048,170.208 c-14.464,0.00-27.776,4.928-37.92,13.056
			C 253.984,185.024, 252.256,186.624, 250.784,187.936C 247.744,191.136, 246.432,193.28, 246.432,193.28C 239.776,201.984, 235.872,212.544, 235.872,224.00
			c0.00,11.136, 3.616,21.408, 9.984,29.952l 0.576,0.736C 238.784,260.64, 228.928,264.224, 218.208,264.224L 196.064,264.224 C 190.272,251.936, 186.944,238.304, 186.944,224.00
			c0.00-14.336, 3.328-27.968, 9.12-40.256c 1.024-2.336, 2.144-4.512, 3.456-6.656c 1.024-1.92, 2.016-3.616, 3.328-5.536l 0.128-0.288
			L 203.712,170.24c 12.192-17.952, 30.432-32.256, 52.128-40.224c 2.624-1.024, 5.376-1.92, 8.128-2.752l 0.448-0.16l 1.44-0.288l 3.616-0.992
			c 8.672-2.016, 17.952-3.20, 27.36-3.20l 66.432,0.00 c 60.672,0.00, 109.888,45.28, 109.888,101.344C 473.152,280.00, 423.936,325.344, 363.296,325.344zM 187.36,170.24L 181.888,170.24 L 145.248,170.24 C 113.088,170.24, 87.04,194.304, 87.04,224.00c0.00,29.664, 26.048,53.696, 58.208,53.696l 41.856,0.00 l 8.544,0.00 l 8.416,0.00 l 13.92,0.00 
			c 14.464,0.00, 27.616-4.896, 37.92-13.024c 2.176-1.728, 3.904-3.328, 5.216-4.64c 3.20-3.20, 4.512-5.344, 4.512-5.344
			C 272.224,246.016, 276.128,235.392, 276.128,224.00c0.00-11.168-3.776-21.44-9.984-29.984L 265.568,193.28c 7.648-5.92, 17.504-9.536, 28.224-9.536l 22.144,0.00 
			c 5.792,12.288, 8.96,25.92, 8.96,40.256c0.00,14.304-3.20,27.936-8.96,40.224C 314.784,266.56, 313.632,268.704, 312.48,270.912
			C 311.424,272.768, 310.272,274.656, 309.12,276.384l-0.128,0.32L 308.256,277.696c-12.16,17.984-30.40,32.288-52.096,40.288
			C 253.536,318.976, 250.784,319.808, 248.032,320.672L 247.584,320.832L 246.144,321.12L 242.528,322.112C 233.728,324.192, 224.608,325.344, 215.04,325.344L 148.704,325.344 
			C 88.064,325.344, 38.848,280.00, 38.848,224.00c0.00-56.064, 49.216-101.344, 109.888-101.344L 215.04,122.656 c 5.792,0.00, 11.424,0.416, 16.928,1.152l 3.616,0.576
			C 215.168,135.232, 198.368,151.168, 187.36,170.24zM 246.304,195.04c0.00,0.00, 1.44-2.144, 4.48-5.216C 249.184,191.552, 247.744,193.28, 246.304,195.04z"  />
<glyph unicode="&#xe00c;" d="M 377.184,220.128L 377.184,220.128c 8.576-12.192, 13.632-27.072, 13.632-43.20c0.00-41.504-33.664-75.20-75.232-75.20
			c-17.408,0.00-80.288,0.00-100.32,0.00c-55.424,0.00-100.352,44.864-100.352,100.32c0.00,55.36, 44.896,100.32, 100.352,100.32c 12.512,0.00, 24.512-2.368, 35.584-6.56l0.00,0.00
			C 261.12,325.184, 288.992,346.24, 321.856,346.24c 4.736,0.00, 9.344-0.448, 13.856-1.312c-0.80-3.552-1.312-7.36-1.312-11.20
			c0.00-27.744, 22.464-50.176, 50.208-50.176c 3.808,0.00, 7.552,0.512, 11.20,1.312c 0.832-4.512, 1.28-9.12, 1.28-13.888
			C 397.056,251.36, 389.472,233.568, 377.184,220.128z M 140.032,202.048c0.00-41.568, 33.696-75.264, 75.264-75.264c 22.656,0.00, 81.376,0.00, 100.288,0.00
			c 27.744,0.00, 50.144,22.496, 50.144,50.112c0.00,27.744-22.40,50.24-50.144,50.24c-10.016,0.00-19.328-3.072-27.20-8.128
			c-7.712,33.312-37.44,58.24-73.088,58.24C 173.728,277.312, 140.032,243.616, 140.032,202.048z M 262.624,290.432L 262.624,290.432L 262.624,290.432z M 310.624,319.936
			c-18.144-4.192-32.48-18.24-37.12-36.256l0.00,0.00c 12.00-8.64, 22.048-19.744, 29.344-32.736c 4.16,0.672, 8.384,1.312, 12.704,1.312
			c 16.416,0.00, 31.584-5.376, 43.936-14.24l0.00,0.00c 5.408,6.112, 9.28,13.568, 11.232,21.824C 340.288,265.504, 316.32,289.44, 310.624,319.936z"  />
<glyph unicode="&#xe00d;" d="M 412.768,211.424l-25.12,0.00 c-6.944,0.00-12.512,5.632-12.512,12.576s 5.568,12.576, 12.512,12.576l 25.12,0.00 
			c 6.88,0.00, 12.512-5.632, 12.512-12.576S 419.648,211.424, 412.768,211.424z M 363.52,294.944c-4.928-4.928-12.864-4.928-17.76,0.00
			c-4.928,4.864-4.928,12.80,0.00,17.76l 17.76,17.76c 4.864,4.864, 12.736,4.864, 17.696,0.00c 4.864-4.928, 4.864-12.864,0.00-17.76L 363.52,294.944z
			 M 345.024,197.056L 345.024,197.056c 10.944-13.12, 17.568-29.888, 17.568-48.384c0.00-41.504-33.696-75.20-75.264-75.20c-17.376,0.00-80.256,0.00-100.32,0.00
			c-55.424,0.00-100.32,44.928-100.32,100.32c0.00,55.424, 44.864,100.384, 100.32,100.384c 9.824,0.00, 19.36-1.504, 28.384-4.128
			c 13.76,17.76, 35.20,29.184, 59.424,29.184c 41.504,0.00, 75.20-33.76, 75.20-75.264C 350.016,214.496, 348.224,205.44, 345.024,197.056z M 111.776,173.824
			c0.00-41.568, 33.696-75.264, 75.264-75.264c 22.688,0.00, 81.376,0.00, 100.32,0.00c 27.744,0.00, 50.112,22.496, 50.112,50.112c0.00,27.744-22.368,50.24-50.112,50.24
			c-10.048,0.00-19.328-3.072-27.20-8.128c-7.744,33.312-37.44,58.24-73.12,58.24C 145.472,249.056, 111.776,215.36, 111.776,173.824z M 274.848,274.176
			c-13.952,0.00-26.496-5.632-35.552-14.752c 14.688-9.056, 26.88-21.696, 35.328-36.672C 278.784,223.36, 282.976,224.00, 287.328,224.00
			c 13.312,0.00, 25.824-3.488, 36.672-9.568l0.00,0.00c 0.64,3.072, 0.928,6.24, 0.928,9.568C 324.96,251.68, 302.528,274.176, 274.848,274.176z M 274.848,324.32
			c-7.008,0.00-12.64,5.632-12.64,12.576L 262.208,361.952 c0.00,6.944, 5.632,12.576, 12.64,12.576c 6.88,0.00, 12.512-5.632, 12.512-12.576l0.00-25.056 
			C 287.328,329.952, 281.728,324.32, 274.848,324.32z M 186.144,294.944L 168.352,312.672c-4.80,4.864-4.80,12.80,0.00,17.76c 4.928,4.864, 12.928,4.864, 17.824,0.00
			l 17.76-17.76c 4.864-4.928, 4.864-12.864,0.00-17.76C 198.976,289.984, 191.04,289.984, 186.144,294.944z"  />
<glyph unicode="&#xe00e;" d="M 307.424,224.00L 423.04,340.736L 373.344,391.072L 256.00,272.448L 138.656,391.072L 88.96,340.736L 204.576,224.00L 88.96,107.264L 138.656,56.928L 256.00,175.552L 373.344,56.928L 423.04,107.264L 307.424,224.00 	z"  />
<glyph unicode="&#xe00f;" d="M 256.00,148.768c-41.536,0.00-75.264,33.696-75.264,75.264S 214.464,299.232, 256.00,299.232c 4.704,0.00, 9.376-0.448, 13.888-1.248
			c-0.832-3.616-1.312-7.36-1.312-11.20c0.00-27.744, 22.464-50.24, 50.144-50.24c 3.872,0.00, 7.584,0.512, 11.232,1.312
			c 0.768-4.512, 1.312-9.056, 1.312-13.824C 331.264,182.464, 297.568,148.768, 256.00,148.768z M 244.768,272.896c-22.272-5.12-38.944-24.992-38.944-48.864
			c0.00-27.68, 22.464-50.176, 50.144-50.176c 23.84,0.00, 43.776,16.672, 48.832,38.944C 274.432,218.528, 250.464,242.464, 244.768,272.896z"  />
<glyph unicode="&#xe010;" d="M 220.352,54.464L 220.352,258.336L 137.024,175.968L 86.464,225.856L 256.032,393.536L 425.536,225.856L 374.976,175.968L 291.648,258.336L 291.648,54.464 	z"  />
<glyph unicode="&#xe011;" d="M 86.464,259.68L 290.336,259.68L 207.968,343.008L 257.856,393.504L 425.536,224.00L 257.856,54.496L 207.968,104.992L 290.336,188.32L 86.464,188.32 	
		z"  />
<glyph unicode="&#xe012;" d="M 425.536,188.32L 221.664,188.32L 304.032,104.992L 254.144,54.496L 86.464,224.00L 254.144,393.504L 304.032,343.008L 221.664,259.68L 425.536,259.68 	
		z"  />
<glyph unicode="&#xe013;" d="M 291.648,393.504L 291.648,189.696L 374.976,272.064L 425.536,222.112L 255.968,54.496L 86.464,222.112L 137.024,272.064L 220.352,189.696L 220.352,393.504 	z"  />
<glyph unicode="&#xe014;" d="M 512.00-32.00L 128.00,224.00L 512.00,480.00 		zM0.00,416.00L 128.00,416.00L 128.00,32.00L0.00,32.00z"  />
<glyph unicode="&#xe015;" d="M0.00,480.00L 384.00,224.00L0.00-32.00 		zM 384.00,416.00L 512.00,416.00L 512.00,32.00L 384.00,32.00z"  />
<glyph unicode="&#xe016;" d="M0.00,480.00L 384.00,224.00L0.00-32.00 	z" horiz-adv-x="384"  />
<glyph unicode="&#xe017;" d="M 287.935-32.00L 192.00-32.00 L 192.00,224.00 l-64.00,0.00 l0.00,88.225 l 64.00,0.029l-0.104,51.976C 191.896,436.206, 211.413,480.00, 296.195,480.00l 70.588,0.00 l0.00-88.242 l-44.115,0.00 
	c-33.016,0.00-34.603-12.328-34.603-35.342l-0.131-44.162l 79.345,0.00 l-9.352-88.225L 288.00,224.00L 287.935-32.00z"  />
<glyph unicode="&#xe018;" d="M 512.00,382.791c-18.838-8.354-39.082-14.001-60.33-16.54c 21.686,13.00, 38.343,33.585, 46.186,58.115
	c-20.298-12.039-42.778-20.78-66.705-25.49c-19.16,20.415-46.461,33.17-76.673,33.17c-58.011,0.00-105.044-47.029-105.044-105.039
	c0.00-8.233, 0.929-16.25, 2.72-23.939c-87.30,4.382-164.701,46.20-216.509,109.753c-9.042-15.514-14.223-33.558-14.223-52.809
	c0.00-36.444, 18.544-68.596, 46.73-87.433c-17.219,0.546-33.416,5.271-47.577,13.139c-0.01-0.438-0.01-0.878-0.01-1.321
	c0.00-50.894, 36.209-93.348, 84.261-103.00c-8.813-2.40-18.094-3.686-27.674-3.686c-6.769,0.00-13.349,0.66-19.764,1.886
	c 13.368-41.73, 52.16-72.103, 98.126-72.948c-35.95-28.175-81.243-44.967-130.458-44.967c-8.479,0.00-16.84,0.497-25.058,1.47
	c 46.486-29.805, 101.701-47.197, 161.021-47.197c 193.211,0.00, 298.868,160.062, 298.868,298.872c0.00,4.554-0.103,9.084-0.305,13.59
	C 480.11,343.227, 497.918,361.727, 512.00,382.791z"  />
<glyph unicode="&#xe019;" d="M 427.00,480.00L 85.00,480.00 C 38.25,480.00,0.00,441.75,0.00,395.00l0.00-342.00 c0.00-46.75, 38.25-85.00, 85.00-85.00l 342.00,0.00 c 46.75,0.00, 85.00,38.25, 85.00,85.00L 512.00,395.00 C 512.00,441.75, 473.75,480.00, 427.00,480.00z
	 M 163.90,256.00l 184.20,0.00 c 3.494-10.029, 5.40-20.795, 5.40-32.00c0.00-53.762-43.738-97.50-97.50-97.50c-53.762,0.00-97.50,43.738-97.50,97.50
	C 158.50,235.205, 160.406,245.971, 163.90,256.00z M 448.00,255.975L 448.00,128.00 l0.00-64.00 c0.00-17.60-14.40-32.00-32.00-32.00L 96.00,32.00 c-17.60,0.00-32.00,14.40-32.00,32.00l0.00,64.00 L 64.00,255.975 L 64.00,256.00 
	l 50.054,0.00 c-2.321-10.301-3.554-21.008-3.554-32.00c0.00-80.229, 65.271-145.50, 145.50-145.50c 80.229,0.00, 145.50,65.271, 145.50,145.50
	c0.00,10.992-1.232,21.699-3.554,32.00L 448.00,256.00 L 448.00,255.975 z M 448.00,368.00c0.00-8.80-7.20-16.00-16.00-16.00l-32.00,0.00 c-8.80,0.00-16.00,7.20-16.00,16.00L 384.00,400.00 c0.00,8.80, 7.20,16.00, 16.00,16.00l 32.00,0.00 
	c 8.80,0.00, 16.00-7.20, 16.00-16.00L 448.00,368.00 z"  />
<glyph unicode="&#xe01a;" d="M 464.00,416.00L 48.00,416.00 C 21.488,416.00,0.00,394.512,0.00,368.00l0.00-288.00 c0.00-26.496, 21.488-48.00, 48.00-48.00l 416.00,0.00 c 26.512,0.00, 48.00,21.504, 48.00,48.00L 512.00,368.00 C 512.00,394.512, 490.512,416.00, 464.00,416.00z M 43.856,64.16
	L 32.16,75.872l 131.984,131.968l 11.696-11.712L 43.856,64.16z M 468.144,64.16l-131.984,131.968l 11.696,11.712l 131.984-131.968L 468.144,64.16z M 272.00,170.80
	L 272.00,160.00 l-32.00,0.00 l0.00,10.80 L 32.048,363.60l 20.352,20.352L 256.00,195.184L 459.60,383.952l 20.352-20.352L 272.00,170.80z"  />
<glyph unicode="&#xe01b;" d="M0.00,480.00L 128.00,480.00L 128.00-32.00L0.00-32.00zM 256.00,480.00L 384.00,480.00L 384.00-32.00L 256.00-32.00z" horiz-adv-x="384"  />
<glyph unicode="&#xe01c;" d="M 7.132,295.68L 256.748,43.126L 509.307,295.68 z"  />
<glyph unicode="&#x20;" horiz-adv-x="256" />
<glyph class="hidden" unicode="&#xf000;" d="M0,480L 512 -32L0 -32 z" horiz-adv-x="0" />
</font>
</defs>
</svg>
